<mxfile host="app.diagrams.net" agent="Mozilla/5.0 (Macintosh; Intel Mac OS X 10_15_7) AppleWebKit/537.36 (KHTML, like Gecko) Chrome/137.0.0.0 Safari/537.36" version="27.1.4">
  <diagram name="Page-1" id="y3P3SnzEQpyUvELCSyzx">
    <mxGraphModel dx="1357" dy="768" grid="1" gridSize="10" guides="1" tooltips="1" connect="1" arrows="1" fold="1" page="1" pageScale="1" pageWidth="850" pageHeight="1100" math="0" shadow="0">
      <root>
        <mxCell id="0" />
        <mxCell id="1" parent="0" />
        <mxCell id="fEwkIQ9iObTtRymes_54-1" value="" style="shape=image;verticalLabelPosition=bottom;labelBackgroundColor=default;verticalAlign=top;aspect=fixed;imageAspect=0;image=data:image/png,iVBORw0KGgoAAAANSUhEUgAAAYYAAABaCAYAAAC8C/EFAAAABmJLR0QA/wD/AP+gvaeTAABsxElEQVR42u2dBXzdV/3+75QJ83Zt49akSdOkksa1rmkjN9di9a5N0nUubIwxw2UMlwEbLj8cVmC4DRgyhluBbdhgzMfW+3/e55xvepvdJDdW4X/P63VeV796k89zPvI8H5/vGB3bt28/KRQK1XZ1dZ0fDAYb/X7/TL8/PL+3t/eU1av7XzDefa5evfoFkUgkTfvLCAQChXo8V/uvXr9+/Wm+5EiO5EiO5DjqxnHXXXfd8eFweDZAIGDYEQiEbggEwt0y3juDwfCt+qwpGIyEx7Nz7WMpYKPtd+txiR5btO8+HeNmvZ7W2dmZB3hwHsmfIjmSIzmS4wgOwABvoKMD4x/M6ugIbZTBfmMg0JOr9270+0Or9DooA361JmBx0XiOIw9hneYFApegjlceCnU1sC8ds0LzFj3f2tKChxLeDnAkASI5kiM5kuOIAkN3qozxS2SUP9Dd3X2ejPTrZcRz9XqLnm/S6r69oyM8oOevFEjs8fs7CxINKXleCIY/EAi+Ufu8Tvu4wAFASKBQptfv0vEW6hhX6Xu3KdxUlASG5EiO5EiOIzAUMjpZtnkGuQMeg8HQx/Q4R8b5Wgy2Cye9U/M1Mu4rN27ceDb5AHIFGPwhHkGuvjNfj6X67MSYj47jOGynx7P0nXL2p3m3jvEivz+4ViDxCn3WIG/lHYSxGhsbT+R89PzU5K+UHMmRHMlxWIGhl1zCZZqvksE+R4Zacf9IpQUGVu/h9yuUVNvcvPmMEcDlBG2bqe3WaZtebRMJBLrzRwGkUwOBzlJ99z3aRt5C6LUdHR1r9PxyEtI6nyvJPfj9xnNIjuRIjuRIjsM5lPSdJU/hLhnlS2SUU7Xi3yCD/Ta99yUqh0bbHm+DkJNAZTdg0tER2Smg6Evk2NomXce5Xcf7tgWUQEReQ4dA4Uc6l7zkr5McyZEcyXEEhs0xhJbIMH9cK/W5oVD4tXr+0WCws1ofHz/a9v39/S8QELQKFF7KKl/zZXq9PdHju9DV3ZrvV45hpfbzBTwPXzLHkBzJkRzJcUTHcSSEVS20iBW8ks3vJUTkfchzKpZsuKmrAjCIBRa78u9sppRVlUzbxH/Ijt05oSN5EjWUpeq7KbFGnxJVeQov0/E/pf3nCCDepuTzmcmfRPetd2BVe0//K4fMFyXvTHIkR3JM6cAwM/EQtFJ/nSqHvicDv5PPXFK6Sq8DWs2vkdFW5VJkqfUMwhv03jIMPZOEsra/PhSKvFz5ghpyBeQa9D28iQF9twleBPvR969hPwANx9HrOr2+W8d6LaWqgA3H/v/9t2nr6buhvbs/eujs+/MxD3jbt5+V/M9LjuQ4Wv9BjfEOKXQUvFUGeaOM8yf0+imt4FdQWUSCOBTqbJMx30tiWJNy00tISvO+wk6vAiD4DNCA76D9XCqD363HrXp/L+WulLmS5JY38lYLEoGP6zuLlE8IUeFkcxvhX+iz7+rRr+Ndr3TDbXgQSWD43wGG4KZd6bqGj2penvzvS47kODpB4QQZ3wtljJ/W/JaN74vHFgj9BZkKykotWITvhNhGKSpkNKqWFE4qg4cgQ3+TTTyH36L5YkeCE2ktfI2+92Z5Dxfr9RUQ2hyRrULJ7lJr/El444mEOuQdnK19fUfbvcEeI/QRPX9O3/tIbEgrCQzHJjDgkbZ39V2m83+Ma/B3912R/A9MjuSYmnGcb0iClvr/IRyCYbdVHL/GreAfxkgrB3C78gPyGIJ/aW8PNsqwr8aoI4chgCiBx6DnC3huwSHYgswFuQXHYr6aHIPdJrwdT8KTvnD5hRLLsA436fkqEsx+f+BaZDHQZNJ29+j5Z1046xs6NwFU6B4S44mAg02i+09+/ifRYzaJ/b8ADO29fY3Ki/ws9hqSwJAcyTFFQ0v7xZDQPKIZjzK4HcT0AYjRtid34KQu4Cy8CEMtgHhA7/0HD0HPL9b+r9L3ltuVfPhGzVsIBclYVzmiGjmBm/X8Aj1uIlxEEhtGM/uVgX+7BQ/YzYSWQjchs6HX11MBpefXw6p2QPFLff4HPA99/mrCTMh08FkiQKf7sVrb9MTmJix7O9h4rOYr/ieAobv/X0OvIQkMyZEcUwYMoV2aL1dopsCGhjZNZ/WuvMClXlJ3lFBSHit8DL2M514qhrS/D+n1s3r/JljJhJH0qGqj8J/s++EDLvT0JwHA7/T4kIz5PzV/RcIaDoP2camef0Cf/UPzr5q/18TgP67PDjD1/HcADsQ67V9AENmG56L9fAXSHZpK+uwG53XMHe1aMPyWTR0OIulhr68rmyQ51ygJj2OSE/E/Agz/TgJDciTHYRiNjRjCcKtW1BjvF1smcaAQY6v334L0xGj7ILErQ/wO8gEYX/IGem+NM+JfQBOJVT4rdxnXP+u9aMx8TvMZ7zXGXqBwJR4LJDclpX8S891nHKjEbv8AFU3a7kJCTRaAwg/hdZBjcElxqpzeLvbzvARA7mTCYtr+ahRgLXAa5da3kS8JBLoKj8XfOQkMyZEcyZHwsIYwqEqg4LtkDF+umP9iKoNkxG9Xwvfm+LH2eKvsQDGGWADDqv1+mzQOq1w1vF/7QZZCK/pwlwz994cY9h9ovif2PZ3Dy7RNj5WzCP/Rvf8s56jXnzl0+9CP9f0VOvbthLF0nJ9pcnxVP4V+bpnXXRXkJNav355QrwaAzJ5T8C1wLgh76dgiywUHksCQBIbkSI7/L4ZW3C9mdY/ekADhE4RhrMEN7RgqcBdnHKeE7+mEarTCjgAGmvsoM9W+fkQYSPt5t+MsKHcQuUH7fjjGQ/iQy1E8YT0CwknhN2GQIavpNWGk/+rx71QeWf7DIDA8rP29z1Y0BetY1Wv+U/OXLmn9ccJVyH+T4HZhsVETyHgGAjCVvAY/hycEe1v7xNO5juZASWBIAkNyJMf//CCpKsO3T/NBGcJ/u5X2L+ilMFpMHZntmEY58A/+Zbfzv1D7eZ/NI5gVPLLb/VQS6fmXqBSCoWy3C6hfA8lmqpHCNwoodrmcBXyHV+iz9+q9TptkNo9vs5VGkW86ob5LbWWTkcOQZxH+gs1zhLv1+mnKXRWe6mTb0cJJttOc4VIABL/WPv8mkBA4hb6ve9GcAFAmgSEJDIeM3NpgS25teHt+Q9f27Org9owK/+Cj95zJd7Jr7ftpbmZUu1nhXzTe46dV+VPzG9i3307tL1evdV6D73Fsb3rnE3tuPJ9R0nX6eM8hq7K9kePlm/1rv9of5zS3qWf7HHcu+e7Rm+Z7nKue852c2lDtVPw+6TXBFK7Pu3Zz/xe3bffe897n0fvNYn+72HtntqkLbfxfAYZqVtsKA/3ZlXp+VUbxEbv6RhV1eMlqJC3gLAAuGF5t83MAgpW5WMv12s9n8RAgutnS1MhucggWACKAwUtsN7bwq62nEH6pzS2EZMiDVC69QefwSc07IbIBLrYHQ/DV7EtzM9wGW9lEEjsiDkNwrfOEYEj/E6AhsY4XMdKKnwosW90UflTz79rfDwAb8hjaxx3cp2P1N04Cw5EbeXWdd+TUhKIyHFEe8+oiURkUM3kvs7IjmlUViObq/XQ9Ty1vj2boNc+z9P38pp5odm34PdoVXQnHzMWZ3Ri+JK8+FM2s0n4r26LZNR06VjCaUxsYnLm1IXNu3uTcvPOSsYvKUEbTy1o2uHMYc9l2bk3gaznVHdGChkg0r1bH1nO9F51dp+urD0cLm7rM5L05jZ3mfb4jQDGPvJdTFbhwvPdgZOCO3MC1cp3p3Hs9etfMI5/xPvfCux+8l6nnme61uW8Hf8unpxWunKVdn+g7lnXaXBjmq6z2ZQTv0wp5H8Cg9xVXD32QZjrDXSC8AFbyTqdIeYbQL0lme2EmtI/0+l4Z6bva2kIlNvYfvk4G+HU2fxD6oCtjfZNbpT+k9z9vvYvQJ6wXE1YYKfReEtpOQuOPFkgw4sFmjmvDSOFfcC7eqt7Jce9nO5dLqaCz23D3gb4N9IzQcT+m/cN9UD4k9EOAAsDTNdQfNb+ZmL/+7oGWtq6B3f6ugavbu/ovbu8aCLb1Dsw+nMDA79/Ws3tuW1f/en9P/wX+7v5Ltd9rMNhtPf0Degz4u3dXdXVdcvqxAAxTcT3ZVcHdnkHhESOSJcObUxeO5tZHBkFg6CMzEwCRwUkrb/uFdsX/4UxncBIHhobwvqxqvwEGQECvDTDw2gOJ7JrgoOEz56dHD7y8c0+Zv+4Odqf5Ql8Copix4ebc2sC/s6v8Bhg8ow8IAApM3mPyHt9jesDBc74zs6DKH3MPJgkcrjte1/dHDL83vXswCIi8736XHIE3YM1vwuS9NH5XgKHO/pbMGfNWvJSfXvPkYxYYaIgjw/dbGcRvOdawVyUkgxh8C1U9NL0ZZvPjYToTzqHkFUPf0tJy3uBtl5GGnSywoUJpi0I5LZaNHPqpHn/jeA3XyShf6Ehyb7S5BNMfmiqjV1gxPtP17SI6wun5jwEw640EB2T4611J61WxBDbLgg6+Vdf1ZkuWiwQEYHET0DT/cYS6axxAeRVTv3WKrf9ORDp8KsfG3gvPbu8ZuFIG8efPN/IHZ1t33/163BF7LyYTGNAnwmhqH1/QfHykc4mZz8nIfltgdpGoKuckCAT/SHDfQ+c/jqbrIQwUuwI103kDGH4MC9MzPrznAYM3Uyvanz3hpJO2andLNU9NdCWqMNKpMnRP5AmAFIoxhn52facedZxKVrpB4y3Y1x2DXoK3gvaMJK9TFjQ/RLRVc+5YDF5edSAXw86qv2hJtwEHjD6eA14CrzH+gMDcpT0GNLzXfJ/vFdSHnzn++JPQXevWJKz2gslYjeu6V3CNHihwzdwjDxy9yW/Ab8Rvw2/Eb8eMBQaAwgPyrMq237PW1Jw12R7OYRuEV2R8v26lJUhCG34AhvExKoNogKPP3jpcfB0WM4lqfffieKEaa3TDJIZ/blf4oavRP2IFTgjICyO1trbOolGPPYcIXIUHYU0DSpYQR6UUDGgj0tdL1VAo1F0i0CH09X/xvAEr1xHqR1IDz2iYP6bjYEmzDxvmCv3Wq4QijKTXX8MTGgEcp3zICPXJGD08RgP5Lc+DmAxgiET6z2zr7n+5J0cxgfkIBnW0f+ypBobDdT2EKGWEH/UMrQlNOCDwACGdUJIMNhPjktfQZWZ6JcYIQxSMnjo942YipJpnJGoUs6pCqzgmYBAbJjKhKxkw3ufRe88DAi+UxCT05RnPU86ZdbV2u2Qs4JRXF2zHyAMMGP7iZb2DISUAw/MSPCDgOeDA58yM8tZo+qK1v9Wu6M2yRXOOCylNeOTUhO/kWr3wkHePvHvhhf+834owX6rzILz3Bn9D99rzHk6blkVIffFkgdjhNzrKIdgmN4aU9i7Nf7NSlsH9vC0xjVxLInm40lXCSLadZ2Spx5R2IHLcwWOgj0QyN/x1gQQlpdeSoCbxrNd3aPsP8dyGc8I0+PETkgoEenL1vWw8F237RYAEsTzLjQj+XsDxGlv5FFkdA1zHxT6nxBTA4TzjOpPWq6H72zvJT+iRaqbvudDaZ5EOpwHQkWgPSshChuf/JmC0HiP0MVFg8PcMLNI2f5igAR06PzySRMlUAsPhvp708tavYmQwspnOM/BWmB4wZLFyrw0ZIDgYZuowj7Mbu6Ln5Sy6U7vapDk90VBOTk3gNRzTM/ZKgBtj54WKYnMfHhCYPMjge37jTXiANn12xftZC2qelaixK16x6QYvVOQBhBdCAiS8UBLvl6zYbIACYPC8C/IMM4sav0hK013/jDGGsuIDVkXkTAHC47G5BS985r03mHvAy3PeQWy4zwOGoZPPzrfnTFj9zGM21wBD2DKKw/fCFbClnpSumlLWyzG8o2wvWezAwoOs6dDVkrtoiF01yehutyWm5DAiS5GosFVKJnG9Ua/XkyMgyWxZ0qZX9Fw8C0T4rNxFZ7VNVpvy13c6r+bmWG9G51FJCS7gopGhWTBafqC9vbPRdo0LX6LHTxESQ29JE60lSmnfdbgrkuCHyNh8aRIM1j+Vh/jIeIGhtXP3QlbFk2xEbdirp2/v4QaGI3E9MhY3k1dgNYnhABTwDrLcatSEIlyMmhVpmjFEB0NLfD59btNXtCvCSXmJrpgFNPcDKnkmfBQ8BBTyarVqr5GBrpPXII8kx8T22/WePAxeCxSyKtoIi0SzZZxzdT6ZC1b9WLvdTIQs0VzHvOW9n86v53iEjzD4XQKATTL64ei85Zt0TiSjAa3OaOnKbfJiIibEZbwY3RuA6ez0ee/QrnaD6WPxmEa+N+Ht6Z4xd/c8LcYbyHT5Au8zDwi8XIMXBkyN+dwrHuB1yuKW/5xwggn/5Yw1L3TUDMc0fjqWkUwOAMMN+3mEld1xfG4lsyNvoIQU428lt8MXDPFMYCG/WQa/i/adxPQRxKNiiOeWGR1Mt0zmCOGmKmS09f56KorwHKysNt8NbsPw6/2vDO0LbVt7hh5Fq8nlI95OqAuJi+GMO+9bPkagEh5GTDjN41u85nADgwzN24Y1Qj39D+nxlvbOgerg5r4U4twtXQPFLlb+rcQM2ejA4PfveqHUTH87zD6e1T4+1t7Tt4kVeCi0Zwbf92/Ze27b5r05Ope12vYmjjPCeTyqCOS0uAa8Z0+9Qj3LvBkv5NPWM/D22O8w2e5ou570ivYNQ/MG3sxwYSQveYnBGZpnwNDMXLD2NzjoicbYtSJOS6toNx5I4dLe6Byqm9yKuKCxW6v1zYrdy4PAKMs4z1ESukjG2psFVCsBCuUt5jEP0Khqe1Kx/gvGEiIRKPwZQJi3vEeegQUHgKKwKSIg2CQvKjzorXheTGxIh/dOeeG512hXHHfZWMJYI+ZfKvzfGmrwY8N7sTmg1JgEtAfUsdvFbusBB+B/VnrxbToUC+TTjkmvwZWMPhErP+FKVzcMt01LS/d5LrH8SYWbIKdRvfNfvf6ZjPsthIpiQOFkJ4NNLgKxvV8Rt9ejyknpnRC6zQGFdI1CdwgM/uX6KkgjKfI5l6BG2C/oVvOwqu+CzEYL0Obm5jMODY3hnYR+CI8Br8I+hu5WDmGzy4McF9/zgRcRef0QYECX6aLD+cPK+KwewaDfTiJ6RIPeNdAVr4pnrMDQ3j1wfdxtZVz9vX3zErmWxsbrTqRbnDW8cVbZXf3bDldV0pG6nuyK5hnxDNDQ0ISXXwAoYr9jgcL/pDOOCSWgs2vCWwhN4Xnw6OUJBvMLdZSAKhmt5wBDoUpaS5cpB9DUaebcxkg0X1VLAEbJ0m7zGY/T0ue8SrunJPz0UcGpzj89u6rNgAEgUNBAgrnLAERujd/O2tCgJxObh/GmQksPuzASoLhwMmL2qeWBfN3zA7H336s08lb98X4jL8kcC9qAgAfqsdVLfG9W6cp7XRL6vMkIfx2BPENnni1RjdUlQjMo/Kqh7TGp7JHxXCdj+WXNv7ly0j+TO1D46CWI6pEHGJKgTpFR3m3JaPR0NlIYnvF9lnwGBt4a5cjNTlhPVUFGLO9p28sh8mbbsyH0YTySmHN9EkKcb0ibT/IKCAS6CijKT925hr8PwGzcuPHsods4ot3LhngLOn4wfBh/juNkYH4cv+Ko/+WJ7qStq69s5IT1yMDg9+89dRhw+Ze/e0/GWC+KMMsw5/LpwwEMR/p6smrDv401HrEztjwVUPBKIT3D47gM0VPOnvliF7d+4WjGsXBJ74fyGjqNx5AWU4bpGV7CNABD8dJN0TkK3wAM85f3GlCYp3AP0wMG3gMY5isElLtw5eddddK00YydKpJWkDMgHJWjklmSyaUrt5hqJBtaCkSLlJCep/dEDJP3wPkJHEg+K/fAY/bi9T90wEDiOWsywjK6pzfFGvOhgD00wew996qRYoHBe29ojsEkqlVNdtKpZ8O/KPYdi6WrlGKy4o8NJclYv02r9B5CO14YRWGfWbTctAqmpkT0s87QvttqEsUPOdnKJ1N9tBe5bKdg+nhM2IpeDrcj0S0AudjlD2TwQ89anSRzbh+1LT0pX0XW26zqD1i2c+iK4STCHb+CRkA/dByJ37j93Un+IcZrKrHd4SJvGgIM/9U+ug+ft7B73TAG54tjNl5dA2vGDQyq2Y+3HRVS47ku02Snu/8vccDuN4cFGI7w9eTUi+jm6uC9ssdYwxMLELFAEbsiPTvTxNp7NM8Z0Sjr/1AA8E+8BcJJ5DcEFCb5fEjYRsBAnoGcQgEAABjIWDPnCgwAhlyFkHhdgscgYMhavOGPLtdRMFquQ4njywCDuUt6oovX7xokt+VUdbjqo4DCWhGBQ3cMp0KhJr03f822aIHOYcacqo85YOhy1z1Bz/2643U/98f+BkMNvAfIvPZyBvESzEP3MbRCicdz8yo/pIOuScTDOuoGydwhoaQDVOrIcE4X9yBAiIUcgQOCp10o5y2WGRzcTHx+pIsmkep6NIvHEFhHWEivX23DQqHX6/W7YTq7UFOPyGl9+vwazVfwPR3vAxh39JZsjiJ8DUlifdckyTHqI10fDG0dt9WdvxRYQ5LlCJMH+WpbW3g2XeXgTuAdOQZ2rNBfFCHAw/WjUt0Sx4D9lzj3ePYnQ/WB8QADIas42z08kZ4UIuLdEa/c83AAw5G+nsza4G68gdmK78dWJHlM53hx61jDw+ezipd+3q2cM0daOWdVBCozKy0o4DFkOm+B8lSmKcesVPhEM7PcP8gy9shlrOipEKJiyBhyVz6ab8pbQwdOPePcS3QYcjmnjPR/kVURfB/HIMFd1NRrgIg5b9kW8x6feWznBau3DRLavPJVjnnGjJxXa1e7NJsnw7hmVYVXevc+1sjHktZivbrY57HehOfdee973zmk2kxz1sL1+x2YH3ucBlcx9MxBYlforzLC729u3nwGPASX7N1jV/Em5HS5rV6KLI7t9DZSYx/yDGgYkXtw82TCUngjrL6Glri656b0lHNg30xyCIAUSW9yCyNJgw85H1O6Sg7DNv8Jf9uCA21JgzvhKVhZDCTEjUfxXAw4vP1wJJ9duOPJOAbwM+PeZ3d/+bg8hs7dy10bzTeLWHcXK2E9f+uEQK+r/6XxQO+weAxH+HoyKwMLY4lQsQaHvAIr1KF18bErT2OEFm/4qXZFDqN0pNCEQODaAgNAtvw1q9oCAwloPAcvrFS8dLNyDFQBBcwqfa68AsI5vIYlnS1AKKRstKlzMMRDHuC8nIXvZM0xWoVQblXwfox/LCjkVoeii9ZcEC1ZvtU891jOVCgBBDb0JEBTRZQ4DP89/qSTqPTaoVk7GhAlMvQ7vD/2vsa758wUWM8xxDYPNHg/FgiG5iG8vI59z29+1xeen3m971jjNBD+cQzk2IQrlTwv2bx58xkuB6HKofCXbfjG9l6ggic2VIS8EUliSk2H5iUO91i9uv8FzkN5Ed3bnKxHTD4l9F4rBR76r02EBxfwgwFQev4GwMOBoBdOunvRokUnTfV5m/aVccMdfRPKccRnSx9+rSRnmJ93fYcr+XxEr0f/ZzIWj3qrytjVqBdeiq1U8ryF2AR0RkX7v7UnGMANIxlJrey/WaTcwSBBjqS2DJRHZsObwHNg5Q4wUDI6V5yCeSs3GzDIJMwjYCjAc1i1JTpHISbez6qyPIfMRWu/47OcgpThVsEpi9afJiB4lsqn6ta95li5VBsJHDIW450EDV/CAwJvegQ3AxhVrb93YSTAsNA3QWJbziL/WbrXT3j3P7ZkeGhuIfY3Geq9DQ0pec9TARNT9mofYbhnaz8p85Z+yXescRow4k6iOjZ88kd4BazqmeQWrNE3bOCriOkf7HBGFZDRQPqei9/fh2qq72Av6cM6XWvSVVYMMISkBfM2r0oKr0CfvVMEuVtdie5n4Tsg5cG2AoZeff+Th3oMoftjK5+mMIx0Vdyk8zjDSAf3O3DbkQYG7q2qeV4ZF/gS6MV9tAHDeK4ndXH7VzwPwSuF9IwNxor3h4aZvO94hunk08+6fKSwCsQteQTPGIa1A4aCpu7ovBVbDyaePS6D8gus6L2KoFjxvNjyUY8AhmGnzHXB6u2PuFW857k87zyyagKV3n48cp/HKPakOeat3DqoicScv2rrIMHNyGZUrLvbd5DYNmGNpNTyjp1eCMjzAoaGlbzpgcdQAI+tSvJAfjA34QT1hsqK5NdFjj1Og5Oa/tIQYHiMFbdLcCkE0ynyWqgWboCS0negjCpgyMBY6rvXOxKYN6loegidIxLVh3+aNp/fcZVLrlzVkPfeyLW6PMJ7AAuqlPx+ZDo6S71/ZqS5XVVUbAJ6P2GwqV+B9r97mJj1hFYZqsvffriBoXnzZWdY1nX/gI73Ps2/DZcIpwT0aAeGybie9IqOmzxjMjRZGUt6i80xeMbI8x7OTJnzBu2q0zcM+zizsr0VQ0zYCCkNwhoQ3Eg8x6qEGtazQjnkGDzGc+mq7cZgHyLfEashZBLWVu30heel36DDrfANU6Ov7XcUyQspVNVRmmQt0ha3mBBVekWr9ttu3q9pv9DIZEB2o5S1YsMuve425axUMp2XPf92n5XCCPgmgdim+/ztoZVgsaDg/TZesj8WKChv9TgmscS2WN2krEEtquAgMGQ7b+2czJI3si71HSucBgwenIBDgSHyONVBngyGlFHnWpZy6Me2b3PwGpLOMqrtiOdp9f1Z1/9gE/kH7bONZO+RnEoob0dkD1lwnRvewa0wrPViqw0lhT9C2awVEQws9u6HLXE1PaZjgCH8e3gbh8Fj+HocQ/PjCYcLu/fUTgUwYCxhEiuP0R4bv9fjH8fCGD5agGGqr8cjug0NW8SK58UaKQyU50UMJqCL6v/PZ9nHqfFW0DJEbyG/ADDgMQAMOq4x8LxfInaxkf5m/y7ujzHjPT5D/jt1ceshInLeKjhdIRJi/ySnz8+v+rgOR4jz7HiGrqCx882Vrf1RSWJEkf1G1ZVKo4qWPpPPoPoIhVe4DPAcvEcAgplTLW2mM6dRngt3Y7lvgsQ2uAu6lwe8exnrAQwFY6NoOyR3MLNkxbe8sFOs0mqsZ5fuANUDU+MtoHvFPZ2/5kfufo1a5ntUDOr5bWWPKT99zq2Qf0Zi2Uve0pDHcRdeactHyUFEbmMFLsCgh8EbEmkDeuTAL0LZ7esIGdGfgeQz3AvNj6GP5DUkikajx+nzBhda80JJMLnvPxx5ExmV++IYmq9PdL9ISU8GMBiF1+6BrWIBf1zJ2/2TJSVxpIDhcF/PzAX+6TIgB4Z6C/HY0N7q1AshDUoxLF5/j4u5F8WLuSt2/ztvxZruqpJ49MI3sSWrOU52IrcuPAgiTLSa4EBkO/0mQ5BDJkP7ovS0qqU/mlm2HilwKqRy44VHlI/4LnLfnuQ3j0WUvCpnQf6C1zxCeKtq2W3Y0HMaw/IaLlCoSvmI6rZHfAeJbRNWVE2r7LglNm8Q6yF4wBCbbI7lK6RV+p898bSzrtJ9fHxoDuIQLoTzvLz764ED917bPvuC088mkT7PdyxwGpyIHt3WvoGEhOtr0A9Dmc9oiWl5CIRcaJIT/rllI4c+bVVLjZ7SrUczMITDnd2WAxHchu6R04Ki9eirbbVVMB0BP9tfItKj12+Hn+G0nVBv/f5EyhrHAAy/i2NoPjsJHkPGRIABeQitnN+k7Z6aoNE8cDQAw5G8HhmS38ZLYsaWQQ6VWYh9T2GYB118v3poAjq7xl+AYac81Sq4aoVvDLOtKOKRmWFeB60ekGVVD0qCY8gWiXNQ1txnPs92vQmMuJw8BkpY4R4IJFQxdOqADlv1vES4/o/kXTyeBSBozqbstYawVKvJH2TI6yCZnU8IyYDBrmihBPNyFGIqMiJ7MsoLzQrbI7ZlTyw2f93xqZUdfzL3063m04xSapsp6fVAkec8AoKIF3rvp5SuAQQHZs5bfo/XpMfbh9mfAWGbkyHpT1I9S68z4ZCYfhLyxpZvVk+JGo/T8ELf0R5OssnayJtt+SnGM1yvsk6RwiJ/tqEX1E4hpIU28bnru/x3G6cPXCSDuunoBwbCXBHArtN1ZfujrvNGQEHvibAXRHb7Eq5dj/e4LnFltseEAZKvjlSKe7QDQ0v37vPGCwxtnX0b0QAat/G02kRvtWS7geuONDAc6euRkX9vbE28lwzNcR3c4kllxK5iM6uCzx1/0gv2aFerh8ar0yrb+zFmGDzDX2DFXoMHIMbx6q0mpEMIJ10GWKvgaBrnUW1XvrFJYUpaPVVWb+WbWtZqO71VY1xbjLjd9OwStIA2DDV0GXX+IkpPF63doYqkARN68rq1VW7siy4JX2beMzyJWhlOnd9cAUKNwKjYdXKbNrvyE76DxLZzJxJ+SasMrM6stRwSUzVkQmUHJc0BBLwiPCXPa4r1oM7Lrfgo53Ju9sK3xMqQ2+5tYeOF2ZyMa/Jjqq4CJh9TUIfuFHIjm6KzK1v+5LOchhTf0c5poFpHq2Ikt78OoYwwi5W/jqyQcdxm22sSWqJSJ/RN25M59F7X3ewDdDxDHI8S0USP2doaSVN+osUpoE55nwOBHDwMmNNUI93tek/Qh/o2Pf+80226Ez6DwG616wvRq2t9rd77MJ6UI/FN7W/R3f/TOIbmmxPdb2t4d+Z4gAHdH5rSJGg0nzTn3zPwIQymv6evubXzwlmHGHerMXTEgOFouB4Z9t1D2bNDSVFDE6SxoSWen35+7it9VoPnkISsDNynvVCQZ+iYsxs7TSkqwJBhvAhr8LJkrDOc5+AJ18XTLfKaDFGumq4kMmWlGPV5Tf67naE7P9Zwz2nqDpNUXrhme7S82TKePblt3qf6iEfz/hLJcTRa4b6GtgEjy1Ekj+TMWbmv9Vli2wbfBIltqdXhD6RVhWy+xnlAxqi7kNlgLiYGDCwHwd7HU848n94Ku0865cxugeczQ5PygIUBVOV1ECX0SHumS522ny0AWqj7z7WdOT2T7m7lvqOd0yDjN8cK1oV+5LyBf9vmPOGVbW3BBVQfqVKnCPVTfb7VNsuJhPEkUECVt/ESdJUS7XBmy2NNRdA/rApr6G1T6W3IoGdbHabQyzh3VVdVkZAmme6uaZPOaZ7NowRK9dlSl0t5CPlwXdvnqMZCWnzqgaHvq3EMzX0TzjF07ykZKzAo5r5A33t6OMMpo/kjFF5Ni1GV0yZCAFRFz0uOFDAcLdcD0W2oiqrHfsZr8Eoph4q3DZZNak7LXfwB35DeBHPn+k/WCvhRjNSCtTtlcHvsMWh2QzUQpDEUUtFEUhI4j85ptS6ZGlNm6TWtAQyYXqmp5UHIyCkvUNgQNtVDxUsjD7l8xyFd3bJrAi/HMAIgGH9HVhtkUZet2xltueBGAxzzVoo/QSWSzm0OrUcluleyrPPZE19w6sU+y9mo802A2AZ3IbM69ET6YD8Fv+nPnBtTjurdW68Rjw3ruR4MZRv/4jwXwnc1aWWtX/aquIY2+YEZzvVB1lugUlxkRvIpx6Xfta4N3am0eU1wGtp9RzunAZlqV2ZKn+frZTyviAmvfEArbFbar5QR7aQ/Ait8OAyOvTzdGt3wtzGyox3LNvWJIFR3r2uEQ3L3EUJWU3WTKLtFShtiHiAIixrmNB3fADyBXAtqsDqHD9uGQeE3Uvaq11e68NmDLiF/xVSzn2VU3hHH0DyRSJ3/iIDTO7BqHJIY9w4j5PcbraKXjuv6hqn7PxzAcNRcj0KSAoDHYktQvWSmJ6DnhY4IfXiM6AznXRAKmTm3iYIE6uLzvQR0akVrU6ysdmaVS2br9UyFTizRTX2XkZ8QMMh4ywC22nxDpf+RWFVTVsOAAu8BCE3hKwwPgsY6RfRtRhBPVUQZizdGTzlr+lW+IV3d5Bnc5bGXvR7PsX2cvUY8gAceQw55CO3TgoM/WrN+y37fQWJb3CR7okMG/gLPI7P3N2S8hnzHJbGgbL2Eg+XBljHOfZ8+p/aumFxHblaFfw/3haov4ynUwRjfbEBT3epMPwtmAaE0JdrxFMy1aaI9lV/d/qg4DduGS9ofNcP1WvZKM59y4niokf5Uj98mvg4w6PFV9F52jOJGhVtWtrebngjXsKrWe9WjgxDhKdNX+jkrxBe534nkvXKoIuvkAV9kMaWpVosp7A+Hu8z5cy4CgH6qq/T6Fa6F5zddDweV5Ib+GasfBfM7XvvQSQWGnoFL4q5mE5SEHsGoXjUWYBiOgc02/u69qRM4j/fF2+9w3fUmCxiOtutJr+r4ytDS1MwYUpS3gh/acc1rwZlTZXoKU60zKLOQRdVNjHG34ZCAySOkmyRy0FYCsWp3paJwChCum5Zb9gGvY1ksCQ7Dxzlg+AiV1Pn3GkNHjwYjsKew1Izcsvf5LM9gcAWcW93+dw8I0EAip+D1byYUhfcAaPA5oa1cp+JaKumN8tXaf+nSr/kOEtsmpDEktvh3012CuEBeVL7Ifjb/EhgEBHIMXhKa0BLNjSxQELbLQWa8z4Xuzs6q3JilEt8DkAM92XLCYkbbiYS6uxYeUaRFtdYAqe53ju53lsD0vIziN/mOZk6DI7f9dqho3KEz9KRAAGO6lDi70ys6wUlb1zuW8BNOVmKYRZJhG29AooJSV3EkauBP2P2GkcO+05PfmHzgC9Ijej+d42BEc96cP+fkwlo7OB+d1x9HuQ8P6XybpjjHMIyu0UD/BIHhE2MBBtcLOV7IZccU5FCiq/tHz09NBBiOtuvJqAreNJTZnOFW6p5R9kIUGOfi5Vss98DFswuX9DztO/54OpoN1vdnVnTcmx4jr232V6nwEDX0riOcKR0lrFPRZnsqU/1TvvFvar6zN7O8/SmSzngb3vFjWbwc16zwndHD4BEeSS1eRs8Br6vbCSWrI2lFjeFBNjMy2ySc8SB4jREFJAAHzgF+Q6bAgaTzsuDF0fYdL4lmFFa8xxnjoG8CxDaqtLKrjUdkrtloPVXaiixPP8q7594jnla2u386x/8oUrfHhbQG+2AIFO4tbOwxWlOAG2E1Iyuu+4InJWBU3iQSbejYGy1doSZJukZCcJTkFi0B/HrgJh29nAYZOloNPDayQQw/op7N5eQchuYCXEXTLspXCSuNFELC+JLUJZQTY7Tr8E4I44wkhjehihxJXdiy1NDVQ1dyAITO60qdV45TjB3pPsCiHpjK38PILKgVZxwjfu/4c0gXT4sfWx/BY+ge+FQ8g0cSe/xGdG/qcInf9RJTTAAY/jVuj+Eou56USn+zFz7y2kSmOyDIGuI58Nwz1gf7Mgejp52ber2LVZ+RtXjNTPVnPoDR84x5rgufpAJAlGGazwIGGDDItVr9U6mU5lbnxU2Rn9YHLj2k37FHcMNb4JgZWvGWKQy1InKZadpDwnhOXcDr6laG95Jd2dycU9ligUdAgOGsD1wUrRA4oMk025W7lsjzKGu+INqx95XRqrY9kuZQIlfexFyFqlyyl32umMiquqC242V5MtJFTWHF/Deb/g+UyXp9rOet2OJ4Hf5BIlqGIwOactT5K78VJ6R1XE5V4CXFSzZJprzXVFfBvSiQ0WdC1IOgl1XZqn2S6G4x02tYRIluWfPO56RQS/Ovo4/T4DSO3jJERTTe/CdJaAhu8VxkOALjLVeVMUYK2/RGmEoCmS1XDffFz0EE90J8o/HQKPeBcNLnp9r1k8F+fdxwUlffknGGp64cq7qqpDnujrdNV9cl467MGmHVHvVv335WAsDwfMDUtSV0D46y65mpzmYy2gc8GYxYYIgFBC+pSXwf42z0i2SgYROnzKm8Xbvq1TxPq+IuFFAhkLEC95RR051kQ+nq7cYIejpErNzJNbDvczLmvYXV+azCuvcYMHGrZz7zqm2880FplRadxcu6TViEEAngcG5qPlVSpufAnDr/tRjifBl4zolzhQENCHiMZ0JYJoSE96HQDscoUAinSMa5cv0F//EdJLaV+cZZvUOep3RJ5C+FdTLUte3RReogl29W9E5GvN56M16PCFNBRHMglxvhvWnZJW91ngv9WKZ7q/s8FRDk08eiOmRKUas37lICXSGoWts3m31x//k98NK8PhOUyALQzOkFVR/2HY2cBr+/d6YjcY1mDH9tm90EW2IlticBGI6jZabNMUTeHOtJHF5gCEFoS6c3xGj3gryI9jV7Sn+XSH/RMMSp39GDeEzGq3dgtrZ7fKzAoNagH4m7wpZcxARCZM8MZ0ghnCWQ6H3o+ZyC/pcmdPyj8HrkMfzmEMZzDEt2aM9jDxRseEerUhn+WUUN+1xCNFsksTvK1l9geiigQ2SJZf7BbReuvUDhjl4T3zfgUBM0vZYldEf1z6Wszs+YnrM50/QP2Gi2YwXtla96nIacmuBg74Y5MvIFMqSESWbNqfmcz/INzlu0atPHSgUGgAiqrBhGQIDpgZbHejbGssYmfOet2BatkQrritDFP3XAMCHRuWX+/rXL/H3RkoaOaEljQByJ7dGSJQIsr6Uo4TCdD42IcugwJzCgiqhUCXYeBXrPHH/iCy5xnguckdiS2eMEDH8opL+FvI/S5d3aF/0tWhSKajPXBRguiVxhSl6pCCPRT9gQ3ap0I99tqp0o9U31HU2cBqQg6E42miFETVXfzSJxG4/kNV5gYF8KQX1U2/6XpjwTrbwZLzAo74B+Ui4lrEM1kuJMvKuXJpIsncjQavQ9cY2OdHsSCbuYEFrXzvO1zU/G08GNss1htnvbmI1o74Xz4xr1mBnsvTArgXvymzjAcEeCOZaj7nqUFH6PJ8eQGdNhzawoCf0Y1uxBITYjeW16N9umOZll637uVtULZagfxGCz0iV+7zXWoVIGfSO2wUtYLPAg9EEohf1OL17xq5jV+Xy993vOAfauWcXH5BsOynazr/BgM53ZcBGq2/7gDHm+Qja/a++7KdoYuiS6WIxmb1IiywoaPsWqzddEa/wXRheu22GqpgZLRcuUzJ5T9yl3TqzSx90ruWpNz4cWNAWiTS07ovXNW6Orwzrecl1bfcDkRgAEHucqH1KtUBCPCj1FK9bJu1IeIGP+ip/G3JsFviEqsgW1kdvkOZikcl51q7YBQAU45F4MIB5kUHvqq/RyyKQXtK51hsQLT5uejRBhhe9o4TTYvgPh/xvBACKv/YyM6R2EeOAyiDQcime8xwsMkpiQRlP491awL9QxxbmUkYBhlSvDPZUSVfowjASY+uzzI+VTJmO0RvrThuvXrNXqt/2dewoSWNH+amQC1wjA0NlfN5wEhEJaWxIMVZ5A0lzbPDYamayls7909FV///fibPs4/IRRgeEovB4Z+V0FKnmkpp6KJKSxTd9jGRZW2l74gecL1m43r22IyFYWZVa0PkpS9IyU/K0YaZPM1fa1TrHUa3pjZ9CUmtYolo8xN3F0GappBTWf9B2s/kkRAL2VsJVXDWXj7W2mJHNOY5cBmuyqDvOIkTeGXl7KnIbO56QDdPELTj93lUJLB/AiSPYaUHJ9HLJdMyAmQJFPKEvnkklpqEn2AkAd0RfOzL/VZ4ltG8cbZlnp33tuw4ZtT5UtC0eXtV0QXRPaE23YuC06f2koumCZkvmNwegChcRqNuyMzl/WFV2sSqjiRiXGG1RiKl5F7cYLoqn5i9/v7g3huucxlfPKO1YWKJwEY3u+QmsrIgLC9Tt0He3GQ+C35Hka9wHPT2Caqd+BxxRd58zKYPS8uUvv9h1NnAbIWiNVI8n4/cF1Odtg/ylobhPuig8M4XEBQzDYvcBWM4Ukfd2VPbXeUbhXALR7GGBoUL+Jhc6LKkP7yfZyGDb38hepzZZMeahPRKsRjA8aP2+l/t7fu2um33/dyYAJ7Nz2nr73x0mKPjkWYHBJ8B+OcPwPtvb01Qyt12c7Fwq7fBh5j/gxeXVXSyBX8qFhtn9GQLiP1p20MdXzLw/lmxyN11NU372AlbcN7QSMUSc8U6jVapkMjFEYRXGUpGZTp1nlY5BJlGYS89eK8+QzzrtSnIb32PBT0HwnTytURPEMj6Hc9nvmtSfwZkTzam03tzOmZb1Mp8L/henGJhns1mKkG2AE6zv5OqeGDiWOpZ1UrHMo0PnUbdwZXRraqxJWQkXd0bnKXQBq52aVvuPczLnXFAJglYSsFINHKqKavsl+qy8E69rlF+BPUC2VqpJPDCeqrur38JxCW5e4KqBRW4cONyTMt7t0hXIh8gIK5SGQZ1i0oiu6aHkkulDgsFRg0brlymijvz+6QN8rEiAw59R3yNALNFZ0Hzjt7OkvcvcmLkBBKJxdHf431UlF8vboU0Gie46OV9e6W2E2+AyqxEI51vBH5JmI2V2nSiXCS6mQGKs6HhOnAY/kqOA0HOfkKDyC2XMq5UTy4jUwnjWRh6C5zQ6PW4DsNmSveAQvR5B741h5CDLIW13XuB9MZRjJJZi3qfpo5zAhtTIY3N6qUPmO1SL1/drmVkIf0b15lV5/w3lRLpwUf1+TDw59eyZB7fNA/P2MTHDDUNKmcpR9PyFj/EtHHvvV8PkMC2ZOkuJ5ZadtPX17R08gx++Wlmhjo6Ptevhb0+r6UcuIDRlCVJ1W9CR36UeQU60SToU+ytZvN16DEcJj5SlDmu36NacWlL1JZaP3s7q3tfq2exiGh0evR0CmK4elDJNwVOmqbdFlnVeiXjoQa4QrVqvJT2XbM6b0UhOC1rpNL/KIWdHiBn90mX9XdGV4r4mrl4jd64XC0hau/vaiZR3vWxq+2MTo6SmdVqFJyWytlZ0oUEJ6w87rjdeQLhBLlUxFSqVrkSkSXvqi9X+OqQIqHm/Fjryle+br3BcpVLVI3tZ8JZ5n1yjMJsO/pH1XNLTrWj0qJ7NULPGV8nr0OLdJv4EAJF+J6pzytX/wHWQ7Vw0HUEqYfxCxPKOLBHDrHglUous3XRktkxcCKAGSzHz9phXrd0YrmnfaDnlGHyscnTG77M3aVZPvSHMaCCPBVo4xdAdoZAMgQPaiB7JKUG+WwXwvqqqe8ZRx3RzvxLVtEJLcWNRH+a7VJjLHf9PUe0jhPrSR4v+DdmUjleG8n3MInznRwCvIJ2iqI13o34e2Pg19i9DTYQEHhTomogIqsbfdbb19c8ajlaRYevdwCqJjOofuvvvVLGiR2+fX4nzn06MvJKSIOkx47Xkr9p7+tUf79TC0ur57sUpGy2TECtEeEgGLah/bm6BdINEt2YitptSRMFJefdiuxNWOc67KJQsq1n9hdk34vznVBzWOmOQGIKVB6PLkHw4mkkMmeZ1dtuZ7MUleQpOmFDO3svXrcBSMh1Br4/H5mugXNWglXL9xR7Ri7RYZUptvmCvVUFNZ1BD+d35t6zfzHS8h3anFpspwUjKLV0E4qyGwVzkMhboUmspfukWgEXL8AuUY5i//Rkxoa1xJ2bya0NwieVvkDBbqvta2D0TJeSyUlLeIgcottBmjXaoQEmBQKvAtVn5AMhxmNgX2REvrmz/tzgOblzXcal58jUh9G15Hr9FBmkuoTB5eYVPENB8qoSJLZbo17XtMqa7xmCqtLEl6pVVnTZm/8ujgNFgJbZi9zwsfYfgelWH8LNVCrLI3buw92xrP0BK9d+kwHoM0k8LvHktVEbwIHesPjhuwZaqvWcltiHXBeN6T67+wwYHmaeQ7BI7q2RB+v0u+xwspSV22s/pw/WYm4dnd950xGrBH2rsGgrY6aXzAYI9t5DQeHKcRfQTWdSzhaxhF0ifgWyQYXhsdJMUgPxauZ05dx43VWkFWETpSyAFNHYyyeh3L8KuCpo5Er9fEJmASvpC18vAcSFAv3vgYr1mt2mRw2Bjf6tY90aWdV5gQFIBiZK7JDZhwE8StFjqKvScmyTtolFSNc3WBp4ckT4XjFmo/i7XaDV/48mgpZZk1VPBYwpYti20zSdaUso2PZ5HTIDldY5nD6fp8jsAj16ir2gY8hmQHL0MAVyJBvZU9V0Yr1ePhvJwFd/oOsozHFXcXiL6iQCGcpo7+aKDvxmjZ2m3GQOfqfAEkvJWMylYDXgJB3XPxHBoAQuU+BMK1rX3R81LybnHn0THSecxbGz5n/fbrnpnTFLFyGORMTNJZx1JIrlgeVXnLQHRJ11UGpNGnynSlsvwudLXLawirT8NRwGlAAC8BIhdS03u8JCvGU6vkm+IZf322XKDxIa+ncmJhpMiF2h8J3r92dHTUT/01h18tQ/68VSRsa+QwuAbn3r8QIpwT0RuJ+Pc0/Iep1k56XmUOktFd/Z+T4Xl2BOP1L33ndbFKoBMBBnNfVJdPeISVcgLGE0nrL+CpRCL9Z8bxgLLjrdoRpEvoHnT1len794x8DgPvPBauZ/HqLeuLGhCOazVllFS4ELZZpBXt+i1XR+ctQ5HU1t5jVAmLLFQYqFBGmIkmzxwZm1zq8Kstec0jsBlJilprDAGLOlUBzVVOYLZJSrcfOPm0s652SV7+LwZLMZWYLSvT6rp4aZcx/CUrtxhOAvwJuAbN267VqvpCc65ZkLfKNxqDiKRECitgeBjyThas2xZdvHF3tERCeZ6AHyAHMzi72spc5zdJe0lGlZwFwHPmdNMulPLQVeMJrVDpOG9Z1wOEjPIFXtmVG3X93aaNKLmQQhlrDHSJeB01EPwEGIAgYTOE/Fp3XC9vaNs/Y0JsDb5ROsfJ6/hS+Xr9Jo22WCBHeZV8eWtIkcyQVDmPc1TlZXs92CIDvKpqdbJrCl4i764rOrOwFlnvI8dpIISDJEUC9fr/tkqrkd1WziJSaRVVA7lxYvQV+v5nE2UuE1uN6TH9FfgUo20DIPVrlabzn4n0BuGwRI2yzRuE7hAA1cQBtRJdUzerf/YHV0PntN02Ixqd7IYY35EAd1pQknhG0gGSFwxg04lMPYkTEaSbyKAMllCN6SNN3J/j67kMbRtGe6qPP/i7du7KwyOy+lJ918ibuKite6Cntbe/kvtzLFxPo7wKhTIOzFdcmhUrYSR0iIh1E+awK3O/MV4QyZaIQVyn/gYl4iRQP5+HFwBrV0YboFgkI0xVEtIVnpIpcX2M7vLOy4zOUbnAZW59wBOpO0Rvyft/0Tn9rXhpp0mYUnmEB5CvZPWCNTuNXlKJM6j5InQ1dAyoMqnXykjoPDLru6KFAq/64N5oU9elpnQzz7X1XLf5aoVrugzzma5yJJ+zFjdH8xSDT1u07nFnkJ93TokOJe/Xte2+UXH8HUrOt4i3sdGs3m3v68BgT+0iGe7lPVdH12+7zoTqSnT+dJIjt5NesuQrcUJsw47i+rY9LUpkr44IaFZtNjmTWQqfzSpnWi0svKlBPaaKdgPydeI5rNY5UAWmwoEHfEeS0+D3b5ruOpKNBgxPAgo2BEMFE9U6wWoS0nEqnAoVfvlyoj2RMcZO2lu5jdDNiSSe6R6neQlGnEQwnApE8BL5w0HfCckN5Q/mP/9+GBlueTydpWg36Xxer+O0U6qbCNlN1UwFvuRIjgkMVcP8ukRGab6MU7lCSiu7r4xu3PkSGXMRsqis0Wcmdq3VKHF/chFF4iLUKFxEm81CreKLm5CnkAaP5LYb/Bcp2SmDq+QzrTIpHc1zyp6LZZxDAy+Lzi5beVdMDD1jaAx98ZotdwYHbjEeCmWl5BAKFQ4y/SMcMxj5h0XKj6zqvsIYVbSH8uhHoNxHlukBocRrPQJ1LSZ5vkjXsyR4oQG6oiVdxgPBUKpFqPGYZhYv+VmMQR5XlY5i+B/Bw2EVbqqzNFN1L6h6ohcDMX3CXpmGoKf7JnnsEhnz4hW9ZhUPCJ6XWXybCyN1+hJoEISonrqzHZhryo3DxmMoUJWSbQ1q+0BnGI/Jb4iHsKuNB1gN+FsZjuy6TjgNN/qOFKdBBnChDNrvEjB6JKT3yRCvAAzQEnLs4NuHGnLbxwBORDA9ESOt/b3frbgfj2esD/1uoJBqKH3/WzLuqpwKPmgrhiI/pR0poDWalIbOK0XbfypeSazAoIP+DFwDzwEFQCSB++NmpCVp2pJjIkP6Oe8u0AqSMlUTupGRWigDTtya16xis7T69dQ5if3Tz2Dd1utMiIiS0oyyFgMEsyFUyRjNqbOJ7AIj3qYYv/YzV6ACwOB5nJMy+/W+gyJ1Zw01RLm1Ld2mqqYhZJKmAEO61y+iNmRW/DCH6bwG6MyusyW1gMOMRS02jl7nNyzgfF1XkRKzWaqyKmqklHWjehw0G6NdqJV7lTgN9W190dR59Z/1TYDYllrecp6A4SnTqEjGeRZaR6rgykWC3OhGIZWt58orZFdalVPY4YBBW/8t0QqFdgoVTtJ9f0Ilwo8v77nqUYXC/qWS3IdVQfRwbmPPw+oE97CM+MOZlcGHVen1cH5D58P5jV0Pa9V/oGJDv03+I4dRGzQhI6q2uC/zBaB4cgjooZdE+C2jbINe90RT6XnB+ZaswFNpj/d7TPmwktmmwiYRw/cUiVh6NLS2ts7CAMt4frC5+VAVVIhq8kLeKa5DQYLA9BtX2fPzeEbdqrfCmwi9g85wAIG+/4Ce3802OtZ/LLiF9mt+HeNMqexwoSWa8GjbffFCXYAOPRkIsdn+1Z0osf4qcWAI702atuSYyFDc/oI5tLmUsZ0rA4qUAlpC6eUtgwQ1wkHwGvAgMCxIUsT2O/A6pGF8ytbsUMhoqwkvsTr1xNuolFmgEFDp0u6nUFN1MfQl8WLocxv9M7WyP5BbDWlO7GCR2LJdNziIahhQ2nZyzNlOKI92n5yzkb6oD5okMzpJhQKvNPo+yHMoFFcgq7zZGEaTjJbxLFOYq0mqqufnmDahw/IGRvcWAv20NJ0FqU4ho1RkJ+ThMPEakNJGBqRWFUKVOqbJLdRaQENMEK/GVn6FBmU8eO2RCoscaZB7uix0WbSqebeqmboNMJarLLZl5w2mzwXbM2fXW3VZEvdLwpcobPViAwzzqF5a2m28lvmrdwxKr4t38phathKRyfMdbk6DVundMWWq0QTi6HuUZL2RBjcYX+r6h8bVbQ4idLNW75WjHP54G6qxVT7a97uH/vjsi2ooffZFGf3fCsi+pW2+ivKpHn8ioPqFHunnIAJe8G96jufwXdssKLIiXgmp83o+6YtbahvaSt6ExkMYede/+i9jAIYbk6YtOSYy1OpzATFwVtWNUi1dLwOjVagMixWw4xHdoRWq3Gm54KUmJk7sP7+R1XyHMcIYbwxe16WvkcHeZkCEcAXyF+gntffdYnovz5ORzilb8xNfAlyB8rVb7m3s2GP2x7kVK0QDoY0wUOvum9W853KFYjY7drSSrFqBZyhfgEcAL2Ch+jAUuhWxST5rlV66zGoKlSy3Yn/ZqJnCiq7qOHDiyadf7ksw4RvX82rq+T6eAd3qKNEl7JUikEh1ZbMcBzHBVZtebEh7GGe8IWL+hJ64jkwncAdTG/Z3eoVVmaVHg9kXYSF5HnXBy5S8vtg1UgpbjoYSzDDZPfFAqrVgq+NdUbE023hfIXNP8CQWijQYuvh1qlraYwCS3zxjbi2Choef06DQzZ4xGD3mVXQ3k7pqGcCA0NwwK+9do5SdSjAvgLfwgCuN/S9GOfYLdv/h7QKBL+iYP7Eeg+EU0HL0N5q/tAAR/qPAQzPkAcODrsua+jgHu+zqPzRt0aJFJ3lgKG/glfHDTOHeQKAnV6Ek1FUv1Ws17In8OdH7o+O83nc06qknx7EzFJrNre9+FFmINKQUTMvNsDFuaYttJzU4CMhVI+NMSCZfiWmAoVAJ4ur2ftMeM4+KHwFFiZ4bY67VKaEmZvmG3SZp7O9/WTSjuPZDvoNSDzOH+/tt2XHtLWs2qeS1IWg8GEOYQ0q6zjbfyXSy4YjCFQiA8EhKlohVLOLYkvbdJg9iWoLq8/wGVFk3m/wGPAHyE0b2A+kNMYdVTvtADFiNuWxzRllLMZ5BNj2dUUutQjMqYmL6cDeKV26Llipxzn0FKGab0Jgl/OXLuC/veZF0m3a5ZkZBwxoHIDh38gYmZ+K2MRLm+t5MgILv4UVpH2nVtusbLHbKgxukFdUiAMW7MjpTbhrvgEQ9DX7kMcwxlVJ4K9r3/JXoMx1+ToOM2SVjAAV4DZezKpa9LQMQIKXFI7LRq4HezcOhHHIZMto3ehpEMta/G9rYR/uod57Cl1BbleH/kq1eCn1f292v+XtHNlPXt9AD+hyg+B3AgayG03b6hvU4grcqMTzLgdZLhms7CreBUBJ9ImTkFUoKvpqmPol7VKHbDnfJanL8742ZZf67ZwoATG9mdJCM4mjQrFTz6q08NuWeBU3E5RUHFyBkqmKpeFVvdI3KRwsgm9VAnApEG4IXRVdvulqS0puU8N1pwjlzFUfHmJObOO3cmfRxGFWLaO7ScNMcre7nr9okYGixuj+LN5i8B2EshPVmqRwz3TS+UWJcBrBSxLeeC2+Iruu+1ABBnpKq2TXIcwSNFEedJCHwGshNoKNE3iK1SuzfeYN9D0iGQ6odU2XOrEr/q0wlUEXAeAFzdd7IXdTreMXydgpVxUUZLRpFs2CMU6EkQPKSw4uVHyjb0Kf72mtCZngFaYadrDwP5b6q5gJ8K1p2m5lehVIqpajtOqYeCT0ZwbyQSWaX6l4TfitRdZYBTwFWiiqUUnVsHqlWyhBIeGEu+A2z5QVm1waee8EZ59LrusR3ODkNVBqNIYz0mIz1G7TavoGqHRRWZXRfEe8PifyCjPOnSfTGO66M7gzahMbs/1u8d3D7rmwZ2XfbhHLo3QjV6Tlg8FOXW/gSfaWRqcBwWw8hRPvR+2T0P6PXT7hKIkl5BGkX+kV6U9trDt0uYKuIDwzIX1CKG0zRtV2CPhT9J8YADK/xHc0NvZPjmBhiBt+YblpNtpsYPit0YtDLu68yq8559A2oj5jVMPX/OXpMJXlKtZHXFIaQkt7HO6B232tGYxv0BI0QnuLef/clIPVggEFaQMoLPDJbRnbRuq06n43GKzHEtUrbM4IEK5pLnDMxdQhxi9eq/FPGuHSNlFyXbxPprW1QIM9KegRMmIZKnLRqKY1WhKJn5pTTHrTPrZbHlnxV+Fk5jAfTMPKVAZNQ5hyCAzcJIK8ywGDulwEGgYLE61IqAF4ly1GurQwYNjmyHvkK85CwniGQTtF5zsQjIE9THzYJ9VqVCwfUWIicRLZW+DLkel/AiNptje1GVyKJjcDAzQYE8yiT5dolC5LbuMl4FWmG9AfohAwoGJCo1m+rMl88kvMLa+A0rPUdTk4DQngJNObx5hMChjfRjlNGNs8S2UyJ6POGrSAKfopeysMAQ4kz3i4EE/6FVuqmj7FTet3r8gh3uHLULyM7ofkjlyx/5lBJChuOcp8LTIL/dN7Io+7xXeQbnMTFJ4cDLAcKa/GGFOrq03n2uMZBiQLDDUmzlhwTHVpRrifMQPihXolY20M4aKqKSHYaKQUIbGgdOTls4th4Ams2XxttlJdQJrloJLchtZHYJT9BFU6VylrXbHmxvrspOmveEq+XsmlsP1qSU/mBT2bRplKhq3oxiRfpGKZvckOX2T/ifZSAosWEZ0NoBuE8tS5VWEx5k5XSKVq7S+ekXIJp/hM2AJGmmSFQyG3sNR7DKeek3uQ72PdgTPF1OsYZZjgKsHRU0z2gL0JBQ8DkWkwivNaKC+bpvhkDXI2hl8Ce4vpzdH9zkP4uJ4yne7tsSzRN1zFTIaOZMtw8QlLjugFmQkMAMiDg9ZfgtyFElFpBHqLFFBEQTuKa8+rhccB6BkQlv4Ga63oVBzQGjfIq92nGIjSlVFqsKq2M8g0PuDDf4eM0YNhjVsTPjiD54H2+XcSwK5HRcGWr54wAOuI8RPrjhVaQth5i2NWcJ/RxxOtkmHcj6KfXMsihj5F01uvP6Dv/iMMn0OvQr6x3YbZTH+nwByzvYlDH6M/0p+aPixCSnt86nK4RgKFzvhkCHcJ4ANtwOQYnGfKwY4a79yL9SbOWHBMdKYvWT5O43QF6FNDpjM5iAAPdwKg8MlVKlZZZTMLWrtI7TKXMUiWsSUgT4yfZjFGar1DG/NXbTekr2kTVknmgBHZW3kKvI1lE85zRDLCOvRsGNcS4DVuvjS5TwtnwAVwlDfF6VtrkCkj8EqqZ3bTJhEzSHLkLwLDnstkwp0nAWrKXjbUrhv+EwukDzosZcx3/guWbPkrlj208pFV4mTypio3GiyLnYnSh5NGkLrZhLwOuJhcRlgxHn0nqG3kKhbY4L6qXSAZT4ZThks+zZdxNm1Ql2Q0QVLXb3wRdK9RkqdhylVAzKVmtt8lq7x5lmPaoEVUvbYvWNm+Jdl90s8kNESosWLJZAINX02UEDgH76en5FLVU+g4Xp4G4fozcNpLX77AhoHC8/gM/ZzUt43qxW/HvGKlBjUo96ygvjfcdGdulwxhaGNZPxbz3lJOi+IeePznUS3Dew5tIFMtLoJ/Ep6iUcgbbS2rfwDnY/gp4POGuEXIfJ9gENCS9SI8tbT0k5BU7v0JOIdaj8DSWkiM5Jjq00v41xp4QkS0/jShhvEfewCU2TyBJBxv/th3eTItMejDIUC2NXGpKIqm0oS+zFWxrN2Whc5Q8zhCJLKeqRd3aTr/UrcxXJrIyn7dsc06pKmjq5HWUNqFC2jvYcS6VsIxmlkJCOYrXE9+fpRDN7CVbzYqc7xhjizFFukPXs0JkOPgCOeb8nBT3wjU/9x0kttEdMeEmWC27bzqvqvmCp0wJqHIaRcu3mH0jc10hfgT3kXwIYS7AwfZKIDfSYqqUloiZvXHXS6PzVnN/ew2nASIaHtt83e/ZVDLJC8lxzYRISvP74K0BDmmuPBdAQQwQj6NESe6G8GUCF5EWVdJbou55JJqzjZS5wmgqAa5QaG628kLzRUgsXErXPYWiCDnpXgHw9a3bvoJ58h0uToNrev8TZ2SfcslbYvjfHLI6fxYxPcdj2IxUBGGXkfbd2to5Cy+A/slOXiKLFbj20aZHrcbDXxDAfN2Vl8JleMwBwUN674f0QND8qM0JhO9EmE+A8kHOjzCTW8k/aYEDr4Gcg9E1upByWb33CUADEMPgk7dAqmM0Rjb6SNqmTee50Xo2obcO7drGPaNs1nEnfux9hhhg0qQlx2QMlUi+m9Uoq9DZrjcDJaiUhpryx5qgiUGz4s02PRaCht+wUDIY1MhXKSlqPAYZN1RYTWMcgUKF+icgxpddvvbXvphubb4hHcmGG0VLe3+TQwWScgV5HJtqqXIrZ0FYJru+24BCinIFhIVym7YoEetJQLBKbzPGlORqkwAMnsbshohhVFPNlF7S+Dl3XkhCjKkap2R5954Mw5+w3oAl4YWMx9Qx8HLTmMhwQeAf6H4SFkvHkxBQlOt+5artZ5pyJ6VrBCh1NsfDdyEKrtt0TbRl64ujJU3dxhvJdiQ57vvqLdeaPAP74bchaY0eEh4RQnx+yXJQGcY1zxLQ4EXMIOlNuauE85ADT6mwrT4Js9HLAQ0rekbPUYhJYP748SeddPg4DSRkZdC+5+L8/3HVPn+2JZ0m8fr3g/mF0IcxljZBG+4erd8CWkaUe+r7V9jy1cj3XBkpq/xH7Ko+9KDt/YCCa/CNrMBZ8ev1Dyx/wOQhnotpo0k3NZWjhu8lzOS+fxtejgO4B1xo7BHt91/u9XcFRDTbiei91yYguWFCTgLNRXRws6S60NNOsoP5Whey+pM+1zEin/bCWnR+S5q05JiMoXzCBZ7qpmneQ3OXBkuS8kJJRltIBoocQ26t7f0MGMCONmxaRzKzJDTxItQboa1fwKLS1hlzqmK7tSUcv05d3H4bQJCxGKOmUlkZP6OmCrFNIZM0+AJIa5djZBWLZwVMSMdoIRFDVzxexpMyXJK0s3W+fMb7xNjPSi2gHwHEttaxJlwl+fFDc80mrNNuejzAJcjTPVoI0U+gyf0hT4MXgKZTsUiCC9dhtDnHjTrvFtM0CCVUo2kE70HXuVCqrzUSASzW9iZ0Z0qIQwYYVvReHa1ScpmSW8AEUIKvkUljJDGakfzOpP+zDH0m5ccCjVTDrZCHpXu1QNVKKRU21ERJMknqUnE7lkcuFsBfoP12Rqdlm7Df4eE0QE6TofuaM2yPuSofwjk/tz0Iwve5VfkDVCBBcKPOH7mIMYSqHk6EROeM7oGx8CoS3cZ9Tx5GZ3OC561oUlextr3OKas+5O4DJbJvEBDdZUNvAI+9fwARkhxJk5Yck+IxVPvnQxLDyBFSmG2a3bTZ1TDhIQhvGKi6iKnuSV1smdGEUdJVRpqppCfd0QqXOBa1VqGL1QsAYhrG6/RpGS93BhjZhTMSNTYpZa3NqSZ05Le9BBTCouqo0PQ19hueRZrr10wCl5AOFTyznKFGkoJQCq9TDdeg01Tm8Fos5QMnnnLGlT5LbMMIJkxsU+K4mEosSmgJ55AXyIMToXtjEsm1IVOJZZLRSGHrXPGqIAmi7QQng7xDKiW3rOS13TyYyFRc0f1O9zLftChtNZVg6B+RfE6R4R9kN+tzPAYvZ2IaE5UHDHdilgBnloz/TACAMBZgLTCqVsXUEoUIcyDCaZ8lK7bRGlVeiqrQIhcpJHiRkQifWbrmpy4XNN031ZwG22c55CmbPiEjeI+NqRv5iddIN6jByk+E/6jHa7T6vwGyGKGkBIHnBJezODBGIt2QpLepLHp2gvv59nDVSEOHC5lV4BnRqMiWyoZ/Ac9B1/8SPb7HEezu9SQzBAx/BTSTJi05JmnRdoLyBv/JNhLbYaNFZDqpIR3RGDFhDCNrzZQeEe8hGJdnPAy/EcyjigkgKYLYJtVOVuYYIBmz//gOlZJOuGXmtJrmM9JrQ0+z8s2VIaYf8nqppBZrVUtynPJQWo1mlLNibjUqsZxPBqtrGT5aWM7Cq1Cp5kw6z8l426ofhVgWbfir7yCxrdQ3htp9lca+2npUTqfJeCnWayHxTZUXOQwjF07ISgae0Ft9x4XmXuFJmGqpspa/pCzYsH9G6fr9KWUt+wuX9eyfVbZBc93+7JrW/bMWrdmv4oD9sxau3y+Npf051a370xc378+tads/q3TV/lR9Lgb6foH6/pkLtZ+FrQ8QXoMHkSognal7kmLyEDq+PIhGNTpa13NFdIGYz3ghhAXxxLLk8ZWu6DIVYHONoi19tA8Tp8EBw13OcP6VGL0r7TzXEsE66mXwiKf/xK2eAYYZhJMSPQbaRc5r0Io79Evtb5/mh9xUGaoRwFN4aXDl7zUI4pgf4DxoFGR7TofeSUkqHdRiPQV99z9u3yjFftTmIsJwH+5zyWvyJb2JnzPieZD06EYXEUEuBAC8XeElGgq9iGosffA6hb++oO+8xQHDA+RskiYtOSZrSJr6yyRnbQik0+QZZrvwUpZrJJ9dZ6UylnZdYWQuMIwYYqpw0uVFUBJJEjXdrGAtMMyYt+yemATvnLEkeBnpdaG700iIi01crnh8lWStEfPj/DC2AFm+6fYmBVclcktg+6q6J01GL6USYAhGz9dKeoaS02kqWU2vjZjKpWlzl33Hd5DYlp5oeAsp9KrW/gdhdZNgxpNJNaDZYUlk5D/wrAALxAWdxAjgQA/tzErLE1H70cd9xx9/oQPNPudRTWhKh2pAlVxPZFfTjEjHEcDnNnYZz8n05DYhQlvFlOF6XedZjokJIwEMAN78VepjUbrkY9rnurF4eBMABtsLQcbvPlvdE97jMzpGkdUCgctcVY7UTMMvRhIDZrCMYl3iKx96JoS/IAN7EzF4cRzOb25uPoOmOICMjOlsymZFnLvSdUl7KU10eJ9E8MFy1+uOp4wULSOksZEA1z6VlCbRDPcgUsSxEOJzCeRphHYUAnsRnlAsgS4BMFtKHoGcik22k8MgsY22VBDSzXEck+S65std/uOviP0lzVlyTNaQB3ADSp+wlFnV5rl8A14E4QzyC0zE19aql0C5Km/wKlArJcdAVdLcZa6GHmAgJIWaavaCuN3aEh0pi1uuyKoN2H7UOl42BDwqjha3GrIb+Q5kLhYqhr+2+7JoQ1uficeb8Ar9CWD7spJXcpp+BZS3ErI5N3fRB30Hy2cTrsBR+evGlchYCEDxWEw4yxHYZjp2c3oNUhYRAxLkQTxwQAcJeRFKUWfOW3GPA4Xd7hwImfsnOkvqW79RvlpVTgodoZ1EUjyFa4flTS6m2hLiKIFNp7JL3hRJ86Vdl0WXROCxRKLVym+siFz+oM9yGsbMBh9zjkFG8Gtu1f0pK3cRoeYfrsESzdtlHL9iK5UIJYUvkEFu8shoiQ5PIgMgOszu+MmExGTE9ybS58EbgBKejutGt9V2sAtdRBgpFOpss/sGIMNXkZxGedZ6MckcQ3JM3pCsxDoMOcqlNHPJdPkGS3DrsBINhsTVa0olvTJQVpjEzQmP0C7SqrO2m2Y1isMfOO3M6S/yxenWlujIk9DfPElZ4JlkUppZZYGK5DMGl/NBXG+BZCOaJEVRJvZvUVO3YUYTKskyOlCUetqVPR4P/IAzzs96Wcx5JZxkzazo+Di8CJNYbrAhIwMMlQeBwXgmNWEDDOQ2CMUZxrXOh+PjSZyRXnK776BuFMYXtecXTnRWNW/ZvK738ugiAWWO4ULovAQI59O8RyBwPpwK5MGNdpJL3FOhpCqyeTRtUltXmhdVN++Knj4j52bfKCz1SQEG9IScx/A2W+Vju7JRqilQ+AQS1XgVen2DDCZZ2WAivRaGeCanaF94A1vsir47FaE6HgELVFSHbuO4BzPxMrTNYjgFHBdjHy8eixdCDoHyWL6Hx6BtqKB6Z6Ld5Lxh90UIzMhuE0J7s/Z3IcDp9YrWPuk7EZG38wEXrnpE7yUb9STHpA1DdKsJHGA168kzm1ANCp1GXC9kwCHXlIy2GPIbBhnmM03vqWAqcGQvJtLS85d2/sk3TLe2MYzjSpd0PVjA/qmIkoHNgfRVqwolYuSVNrmL11AsTyfXJcLN6lzGzzCl0X0ivKPvFpjWpOGnjz/+eKIVO8Zi+EzfhQr/0+w3w7QxDRsA4jxmOs+EmVJlu8nNNIDhP0gOVCMhzkM8iudOPPWMKxwwrXNG/Xh3DhOayi+cW7Vx9zM0ViqoDZtzRJwPL4ky1VRTRdVmZcwVVkMnC3mMDIBXPIcihZMKFZYrE7FwelHTV31TzWmIBQaMnlb2rzuoKRRst815II1FrvD6JBNaIRw01mMhiodmkcsBIJX9Qx6tREXoJjwVQkDr128/zVUz3ei4DL9zVUF/oLQWD0AAVU8oSuBBaKlY53e1zUeYsBelrvfY8BUy3ZF147g1Un8Nt9Kpjtanmn2uxecbnArscUhzCyw2uvDXI0lgSI6pGCqd/JUpD9VKsnz97uia3heZBjsZqlii0gbZCYwKxC1ktwnvUG1DvB1DnOO1sZTxo8NbaUN7bLe2TN846+LzqtreQ4wcCYdUaf9AZmMVbKqVqvyuwX3QlnxSvlnhH0yWm+9UB41B5pwqJK1Ruab3lzF5j/xE8x6qZroww/A4jHEfZFDnqX90loDAJLpNWMlvGMizdE/gEUznXKqCRrWWznN5lc2xvI4y3ySzjCVB8pVcV+Ka6X4P7o0hJhoWe5upfsqttTmPLGQ9jEzGRhMWLBYBrl6M9ezyNnEaXkDRwNRxGvz+LQolWWCQse2jjwErbecx9Mvo/UVJ1fdbDaHQ+witAAwjSWGMAEIn2HLXUDxW9XOW3xD6Jc13nDrqcCWu7rtUA5my2r8Nw9R+GsBBt2k890aAI2DoXkDvBvINyoF0umT29ZYwh56S6WfxCrgTJMATaU6UHMkxlqEQw+0AA8qkC1RZVCOJjNkKK+RoFY4qabbpNxA0pZSzXbiJUtV8FzdPr7Sll1S85MswnpdRNGK3tkRH5uKWCOEXE6oRmW0GGj/lVoaa8/ES5Fl1WqVXhsz3Uqrsyp1V+yyjqdRhavZrlBspa2y9KyaMk3BJpsJCP8qostpHKQrJqJIoOmuxVWrNroNw12lVW8l9CFBnyQjP0Dyf1XqVvXdLJf1dUrP2E75xJL4THUo4X4wgHyTAjBrkvr3fJWQkvLNNOM1vGilBbFOLUHkQHYYQmKmJWu3y8KXR2rYLJWVSjnL11HEaYjwG2LwRjJ5n9KlAwuC6vses4O9yeYee8Rrblpau8/FCxiDcN5H5PTSdxntvLImN6w7dTfkqbGjLVQi/hdCXFQqM9CNd7sAp6TEkx6QPcRd2wlzOI2yEaqpAoVA17nMFBIXIMzfYUJKRwVY4iZwCIaVcI/lgm+J4ct0qH336+BNPvMhny1TJJZ46XsMyc4F/ulbhzxGmobrofDwGJU6RqDY6RTou8ftMhUaMPIZW7oCDAQjkHqqtN0H5bYnyFTOySyBwkfQlh5dQ1Y0qihaQpEXmGwNvOR5WdsPTQiI8Y6TKa63iKz2nqQyipwKSFbxXJrnyc2Zk3OSO73e5hUk1uAon5eFRUYGVZcpXQwYcUyusN4WUSJ7RjgoYYT1yC3kNIQMc/P4woSHZIX6YXrbuPt9UchpkyKa78MtfMfgklwnnOMP4NhlEhOsGtHouRfqB6iG97x9LIjfOSrzYhpGmDhR0nr9W5VLtRO4NVVkOGL6pyqadjvH9C9ec6GQmVVua620HufDjaCwlTVlyTOZQ2Wcp4YVsrcSz0TqSjMNyrXAb2vpFkLKhiAyjV+Q3PZbxEoi14zGo3NV0CKO5DF7HrHnLfupLoFtbwjmQyo7vz0KWWh7B+Wglydhlu3afMJBNWATeAmEbl/Rl1YzAHsJ1GG3CP+QYTj7tnKt9I7QXjR9ma3ttngASKW1yK1kmOd9iQjFGG8r1iQA4S6UvVbNxlzSPug2xLM94Wx1mm6xF6/7h7gvHr/NNUWJ3Rpn/5ym6V2mS+M4UEBiGuLsvli3eZu5Z2fodYqlfEl0gqQyqzvCsKD3Gu7Ihp+Bzp551PjpXpb6p4DRo1Ztt+QKhH2NIMfqe6J2tUkILqFNlmZHF9Dtobw+sELdhzQTB6ARLIDNqqVMBDM+QB4iXpB7beYYa5D3Nl5egUt3QZeRcnHzIZxHko4xWQHApYKB8/A8sryJYkTRlyTHJi7cTZOT/UygtoSIZQUpAl0khlbg4xh+2bB6yD/QwbrCtP5FmqFB545LOy7Xy3GwqfjCS52Yv+rAvgW5tiQ6Vnd4wy/ASFCpS6WVGrZXathLTG81q3MTPK+ykXJT6fR6RrsYQEuPPrvT/PSa+7xm7EQ0z/SGyajr+hhRHjTSk6BNdrOv2pLWNDHaj9ahIds/XfVglY9vYukt9rpXbaArbRL5mWsnSWPnxMQn3jcnLKu94GeCJB5Wpe0Dym7CXIeJVGWVZ85sWqfESyrpFYo2TRE817VLbTdKaLnFqRBQ9e3bl1HEaZMiouvkTgnP0cSaZisFzstMI1n2VqiAZyIhNAAeXUr8/0RNxPRe2IK89uZ4CRLfwdZNxo3TdDda7CdFn+mXWcwreqWN8hGoq51WsU1J9jZX9NufQlTRlyTHZQzr+/SkL1t06q6jhM+mljXfllq3al1LUsG9afu2+8+Y07Dt3Tt2+8wr1urBu3zQ9Tylu3De7cq2ZqSVN+1Lm2XnKmdOu8SXQrS1hQ1fhL5pZ1vKqacUrPzS9ePkXZsxbao4/bU7tvllzavalz2vU85p9M3Sus0qW7puhc5hW1KhzrjPnzHdnaZtzshfe4fIeXnx/1KRq9pJwptpw3iJj+gp1lntXUV3L5zIXLNO161g63gzdD447Q8c7X89TdS5FVWv35S9cti+9qHZfCudVaD8/fZopk/W4C+f4pkhygvslJddXT5+79CMz5jZ9Ibtszb7cirX6bZbqPiwzjzP0G84qqjO/HefN/Tm/qNH+rkVN5r4xX5g2l37QCA1OPqdBxj/gNH/ehBFUjf4q/lj8/k3T6e5mDSKqqOHrrC5QsAwGMQxfYuwY+Gg0etw4weE0yGeu1HNSPAUZ89vIm4zzdhxH7gBvwJLygmGrPhtEtfX1Sj7vcvfkUnkTVQ5YuTd7ddxNMLYRHvQlO7glx+SP49zKsM2FgXaOc+5wxney6uDZnuqdhT4rxrdjAueGtzDWhDjfI99JFGPrBI6903kLy31TK1Ln3a+ySbhfO9w+Jr2CSuzd8OsgZ0kumtV7XwyHYY5d0WMEIcGF3ousRVtbaC41/gon1biY+wa4DUhpw3tAeI5qHTwOgGM00Ghu3gz34BKnojoRUJDqavjWeP2n47jmp3Ju5FJIFmvFv4zSVF0TTXxa8IjwFmBKw7XQ2/e6RkAVACcMaK6XfaEwayXEja7Sv8g/JHIOyZEc4zAoJ7u8ADHwhgnMaqJAk7jKZHU93e23fgLnxbbzx2jkPGAon+CxmTWaWb6pl7WerPvV4P4Win0JSqYnGiqZRg9lGvDIUBYjTY0H4HonNLMKdsnoU20TnBAJ4y6ByCKAg/wEDGFCTZSzClQkaxHq1PNr3fe/hlwExLTW1kiaI6eldnZ2zrJG1z+dc7AJ8NBLXInqOMJHdHoL3uKR2tgfPAsZaFb9KRs2BNP5zK7+Q5eipyTDvo+qK81NTvqjyoIavaqDWe5xgQUMQknht9NfQu9tk+fQz0SfBQ9D173OJee/hKbUWFnhyZEcYwQHFh6nTmCe4pt8OYUT3H5PmeB5jcfAHe/AZDLuy4mHyeOfjPs1kXsWf9jexyH6JHzZcgvQBQpfT5Mbqy0UvgNQsD0MQnNlHD+J/LQVs8NDCG4mIasuZ1e6Uk5W2CUAhmuW82fXrpOey7cRYtH3vo7h1PY/02c/jlFy/Ri5DvZJddTYgCH0NxnpK0iOC4xutYQ2EsT0fg7f5/SfVFUEMS1ys82nhJ/T639ovsJ2oiOP0Fnnqosut5pNyGBEAh63AxIegIi0hr0vodvQjtI5q1Q1IFnuYC/8Dtub2jQHmpG0Y8kxhQAx0Xm0ntdxx+Cxj/T9mtB5H+dKLM91Bu4WDD3GUSv6ShsqCt0l4/1py3QOfxEAoH0njGVWzC7PcLm+02kJX6FVEN5sfT/kr85mm4w1YaWQjcdH1rHSRgajrc2swCUhEfzikN7SByC2HRSpM6zl0fo3POe22REIdOLZ3BtDnDtA0yErsx3ZSVc1vAg8FQFZjQO8bnvegAFVVyTXUfuIrNC54vmstxLbEdqYypuJvM+BJL2qBQLhW0nYW/JbkHv1UfIOFmzDr4L05u7PtNWr+7WaiSbzDsmRHMlxZFYSlLYR97YJVP9ZhFKIf7Oql1HcaTupwdQN3mrbXwa1Uo7cYBvfdzZbGYzQRfr+++hiBnMY6QetnNeQf7BhltByvW7V9FPeamWpw3sIM9mmNqG3Ag4eH+L5Mf7tnFcAMHLEsAMxTOUPQhhzbTmfHgYUAIAvci1OruI/3meWgBb6jM5pM0AQ7/hWtync5HpFv173RSv9kMJDoV00IOK6OH9CTITKIMn5/cFmwmEuybzdSoGH99j7Gtpo70XoNXqx0iXUX0e3OF3ngBUe5F4G6whpbdzYezaJdzrcKWx3uFzX5EiO5PhfH06SYbpbAfsx7jJM9B+4B9kGrWJ/bh9N4vS31iMw7S3pb/B5GxKKrHCewg9dY3t6Pd9NDN6GX0y4SGGerr14CoAEoSYZyYBbDdfSn4AWmNT7a/9d+s7nXN+Fn7IS9w1T9uWVxKJGqu2ucexrQxKzrTnN+UqcLvRQrGeh4/+dPg5Wtyn8kPv+X/T+d6zOU6SI5PhBqe64YbRyKzUeetp2rwPYOhdaMluwwoa1OlZa3kJkNzLgLry0g9yJ1U2KfNj2fojc7XpQf9VqNFHiG1gH0Nrvhj5iZcQBofCv7e8RvM9JedDS9Ad4Z7YIIBImJIcIYDxRweRIjuRIjhGHKzN9tQz352RgWCUj+/yMM6LPuTaUjzrDKbmL0CMySL9GQlsG7VV2RW/zAhC0/P6ubJsc7k7FyyCZigElPBIKdddCbCMsZBvYhHr0uJt4O7LTtq9z+C3OQEL0+o41hJ0LRzLQsZ6O68tQ7uL0UnkN/tHpJmF4f+zCTffZMFfoPp3DA64ZDzLg9SS1EzWmXK8M/Wsso9kA5zet52FaeF7j8ih9DhjxCNZbEO2ss2qrwQrCU84bS7H3rStbHkoB9xNg0bVscDLlX7YAQG/o0LOu+krJ8sjj3m9FCMz+fqbnNoD8Iu1/Dx5F8i89OZIjOcYADBjk4MdskxgTuvkY4RUZpq8giifD+j299309/64zriSP77D1+INhkB5AwiWVd7DCp2wVBVEZW1bkW+ijYKdpWNNiASF8PfkGVtGQvmTIttncQcDF6cMbXK6BOL3frrRNovtaK10dbFd4psayrk3TnVoS3Bh3V0ZqwmAksjs6Ojeq0CnkGuSg9uqnysnmSmzZqe0oFyjEIOv88VzS9brSnodRRaVRz9Uy1he40tr1TCqvXNiok9W6BSW0j4LKowRf7K7zEhsuC7ZQqqrvL0M6xKrBht/E/bBluoSYjEf1Su6rLf01Hefom/1uzf+zIIGaLEn3oBLkkW9aryP0JeTNtZ936p6+XN+7E9BHVyr5l54cyZEcYwklndzS0n2eK6tsVHgnzErXhlgACQMG99jKnPDv7Ao7/LCLxz/qVqf/cXF8JCSeiPn8WTeftGEdkyh+zHkfT8d8/ox7/aT77FGE5Kjnd5N9Pe68mf+63MAzjtD2F0IvVBDpMxRcf+E0m0h830lYyMpQRNqR2LahHrNib3aVQa+y3ILIJ2yjodD9bp/3OUnvP7lrfNoel+OHnoLMR2LaNtUxrOt/23JXc/5cx9PuHGOvkc8eJ3+hx7/b16z+zYqfqqt/umti26ftcc0x3H02eY8H9fh7ndv9ADYhLCs3Hn4jJbSACXwKABJAcFyIZO4hOZIjOSYVOE6gGoYVNQBCItarz2dVDe+AUJITxdtgK43wGkj8Bq/XillhKsJBwXfR54AVre2lQJjIcB9+7wwx5aX/iAECGcOIM7LGKHvA818HDs94gAJgOPB5wgrQGQP82NBJGEzH/AfGPP7nbGuO+YQ77lOekfaOd+jxzXk96b7/mAUKY/T/4a7nAdv7IXS/PvsufakJYZHbAIxo2qPXr3W5g8u9Kica+3R0dCk30dkIL4KcBV4P/AlCTlQokf/A6MOBSP6VJkdyJMcxCS54JlTQuD7K012YJt/mJiKLSUBT4UO4yZZ+RtptWCbca4EmuFufDZC0dr0Y+m14B7XS0FZLMAt3u3LRsK1WOnRSNjrcZ0wqfmwoy5S69rr9qszWyFf028og7/gmxLODqiW2IZTkyHwk05dQOaSy2gpyLICoKrIyIMsR2gJkifs7Zdnkaj45kiM5jqrx/wD/frAz8Wg9TAAAAABJRU5ErkJggg==;" parent="1" vertex="1">
          <mxGeometry x="43.29" y="399" width="130" height="30" as="geometry" />
        </mxCell>
        <mxCell id="fEwkIQ9iObTtRymes_54-2" value="roadworks" style="text;html=1;align=center;verticalAlign=middle;whiteSpace=wrap;rounded=0;" parent="1" vertex="1">
          <mxGeometry x="58.29" y="260" width="80" height="30" as="geometry" />
        </mxCell>
        <mxCell id="fEwkIQ9iObTtRymes_54-3" value="" style="image;aspect=fixed;html=1;points=[];align=center;fontSize=12;image=img/lib/azure2/general/Files.svg;" parent="1" vertex="1">
          <mxGeometry x="110" y="210" width="36.58" height="40" as="geometry" />
        </mxCell>
        <mxCell id="fEwkIQ9iObTtRymes_54-4" value="traffic_signal_sites" style="text;html=1;align=center;verticalAlign=middle;whiteSpace=wrap;rounded=0;" parent="1" vertex="1">
          <mxGeometry x="55.28999999999999" y="350" width="130" height="30" as="geometry" />
        </mxCell>
        <mxCell id="fEwkIQ9iObTtRymes_54-5" value="traffic_count" style="text;html=1;align=center;verticalAlign=middle;whiteSpace=wrap;rounded=0;" parent="1" vertex="1">
          <mxGeometry x="53" y="290" width="100" height="30" as="geometry" />
        </mxCell>
        <mxCell id="fEwkIQ9iObTtRymes_54-6" value="legal_speed_limits" style="text;html=1;align=center;verticalAlign=middle;whiteSpace=wrap;rounded=0;" parent="1" vertex="1">
          <mxGeometry x="70" y="320" width="100" height="30" as="geometry" />
        </mxCell>
        <mxCell id="fEwkIQ9iObTtRymes_54-7" value="" style="html=1;verticalLabelPosition=bottom;align=center;labelBackgroundColor=#ffffff;verticalAlign=top;strokeWidth=2;strokeColor=#0080F0;shadow=0;dashed=0;shape=mxgraph.ios7.icons.folders;" parent="1" vertex="1">
          <mxGeometry x="67.5" y="220" width="25" height="20" as="geometry" />
        </mxCell>
        <mxCell id="fEwkIQ9iObTtRymes_54-10" value="&lt;b&gt;&lt;font style=&quot;font-size: 14px;&quot;&gt;Data Source&lt;/font&gt;&lt;/b&gt;" style="text;html=1;align=center;verticalAlign=middle;whiteSpace=wrap;rounded=0;" parent="1" vertex="1">
          <mxGeometry x="30" y="152" width="100" height="30" as="geometry" />
        </mxCell>
        <mxCell id="nWg8PshFdt07fVIY3bvL-12" value="" style="shape=image;verticalLabelPosition=bottom;labelBackgroundColor=default;verticalAlign=top;aspect=fixed;imageAspect=0;image=data:image/png,iVBORw0KGgoAAAANSUhEUgAADwAAAAhwBAMAAABikNZBAAAAFVBMVEVHcEwAQoFIkaL/dx9WZZTpHDL/khl6g+etAAAAAXRSTlMAQObYZgAANhxJREFUeNrs3T+PJEeaH+D35Q7lTjRkixjx7gMIWFcQFoJs4ZyTKegcfShZ55+zjryFQF84YD/ALncAnd9h35IMGZHVM8OZ6a6qrsyKjHwe9Da5zZ6ayqiM+MWbkX8iAAAAAAAAAAAAAAAAAAAAAAAAAAAAAAAAAAAAAAAAAAAAAAAAAAAAAAAAAAAAAAAAAAAAAAAAAAAAAAAAAAAAAAAAAAAAAAAAAAAAAAAAAAAAAAAAAAAAAAAAAAAAAAAAAAAAAAAAAAAAAAAAAAAAAAAAAAAAAAAAAAAAAAAAAAAAAAAAAAAAAAAAAAAAAAAAAAAAAAAAAAAAAAAAAAAAAAAAAAAAAAAAAAAAAAAAAAAAAAAAAAAAAAAAAAAAAAAAAAAAAAAAAAAAAAAAAAAAAAAAAAAAAAAAAAAAAAAAAAAAAAAAAAAAAAAAAAAAAAAAAAAAAAAAAAAAAAAAAAAAAAAAAAAAAAAAAAAAAAAAAAAAAAAAAAAAAAAAAAAAAAAAAAAAAAAAAAAAAAAAAAAAAAAAAAAAAAAAAAAAAAAAAAAAAAAAAAAAAAAAAAAAAAAAAAAAAAAAAAAAAAAAAAAAAAAAAAAAAAAAAAAAAAAAAAAAAAAAAAAAAAAAAAAAAAAAAAAAAAAAAAAAAAAAAAAAAAAAAAAAAAAAAAAAAAAAAAAAAAAAAAAAAAAAAAAAAAAAAAAAAAAAAAAAAAAAAAAAAAAAAAAAAAAAAAAAAAAAAAAAAAAAAAAAAAAAAAAAAAAAAAAAAAAAAAAAAAAAAAAAAAAAAAAAAAAAAAAAAAAAAAAAAAAAAAAAAAAAAAAAAAAAAAAAAAAAAAAAAAAAAAAAAAAAAAAAAAAAAAAAAAAAAAAAAAAAAAAAAAAAAAAAAAAAAAAAAAAAAAAAAAAAAAAAAAAAAAAAAAAAAAAAAAAAAAAAAAAAAAAAAAAAAAAAAAAAAAAAAAAAAAAAAAAAAAAAAAAAAAAAAAAAAAAAAAAAAAAAAAAAAAAAAAAAAAAAAAAAAAAAAAAAAAAAAAAAAAAAAAAAAAAAAAAAAAAAAAAAAAAAAAAAAAAAAAAAAAAAAAAAAAAAAAAAAAAAAAAAAAAAAAAAAAAAAAAAAAAAAAAAAAAAAAAAAAAAAAAAAAAAAAAAAAAAAAAAAAAAAAAAAAAAAAAAAAAAAAAAAAAAAAAAAAAAAAAAAAAAAAAAAAAAAAAAAAAAAAAAAAAAAAAAAAAAAAAAAAAAAAAAAAAAAAAAAAAAAAAAAAAAAAAAAAAAAAAAAAAAAAAAAAAAAAAAAAAAAAAAAAAAAAAAAAAAAAAAAAAAAAAAAAAAAAAAAAAAAAAAAAAAAAAAAAAAAAAAAAAAAAAAAAAAAAAAAAAAAAAAAAAAAAAAAAAAAAAAAAAAAAAAAAAAAAAAAAAAAAAAAAAAAAAAAAAAAAAAAAAAAAAAAAAAAAAAAAAAAAAAAAAAAAAAAAAAAAAAAAAAAAAAAAAAAAAAAAAAAAAAAAAAAAAAAAAAAAAAAAAAAAAAAAAAAAAAAAAAAAAAAAAAAAAAAAAAAAAAAAAAAAAAAAAAAAAAAAAAAAAAAAAAAAAAAAAAAAAAAAAAAAAAAAAAAAAAAAAAAAAAAAAAAAAAAAAAAAAAAAAAAAAAAAAAAAAAAAAAAAAAAAAAAAAAAAAAAAAAAAAAAAAAAAAAAAAAAAAAAAAAAAAAAAAAAAAAAAAAAAAAAAAAAAAAAAAAAAAAAAAAAAAAAAAAAAAAAAAAAAAAAAAAAAAAAAAAAAAAAAAAAAAAAAAAAAAAAAAAAAAAAAAAAACukRNu0/cf/58ffcYADOgbTQAAAhgABDAAIIABQAADAAIYAAQwACCAAUAAAwACGAAEMAAIYABAAAOAAAYABDAACGAAQAADgAAGAAQwAAhgABDAAIAABgABDAAIYAAQwACAAAYAAQwACGAAEMAAIIABAAEMAAIYABDAACCAAQABDAACGAAQwAAggAFAAAMAAhgABDAAIIABQAADAAIYAAQwACCAAUAAA4AABgAEMAAIYABAAAOAAAYABDAACGAAQAADgAAGAAEMAAhgABDAAIAABgABDAAIYAAQwACAAAYAAQwAAhgAEMAAIIABAAEMAAIYABDAACCAAQABDADjyP1NGd7d+AV/tBcAoAIGAAEMAKzizTZ/zX/77Cf/+vu9T13eff6jP9mhABgqgMvnATxhY/5ifwLg3DpOEwCAAN6RFrW2T75pEwDO9UYTXCv7gfVffQMAFfDKFXC0iPrRNwAQwBtUwC2jlo++aRMABPD6akaU+OQbAAjgtfO3fHIA2klYAAjgLZT24QB0i5JOwgJAAG8hPxx7zghnYQEggLfQoraoyyHoFlUFDIAA3qYAzijZotSMjKICBkAAb6FG1NYPQteIpgIGQABvkb8laskexKU2FyEBIIC3UFqUiNbvwFEyqhtxACCAN5DRomaUyBYRUdTAAAjg9S3pW1tU5S8AAni7ArhEi9rvwOEQNAACeCO1l8Cnu1A6BA2AAN4if8vpJKzTkWhtAsC53uzuHf/y40ub9N3H/+/H1d5IaVnfZkaJWiL6FwActgL+aau/KE8rv6VXvypgAI4cwFt5WvmtkVGaChgAAbxRAdyfxVBaRKQ1YAAE8CZqvxVliez3hFYBAyCAN8jfEiWWi5BO94QGAAG8srI8BTij9AcDq4ABEMAbyJZRevT2E6I1CQACeHUtMpZrkaJfjaRNABDA6xfAcboLZYtanAUNgADexnLsebkjtLOgARDAm+RvyV4Cl2j9gmBtAoAAXl1psZTAy0KwChgAAbyBjIxYqt/TPwBAAK+r9VOw8ul20J4HDIAA3qIA/vAg4OIcaAAE8EZq1GUV+PQ8JAAQwKvnb4lS++W/pS235QAAAbyy/gjgfifo9DhCAATwRjJqtIgoGW25GwcACOCVtYhSs199lFHCGjAAAnijAric6t8WNSUwAAJ4A7VffFTbckGSs7AAEMBb5G+/+KiXwOEQNAACeAu9/s1lCbg2BTAAAngLGaVFPw2r9vtRAoAAXtvp7Oe+ANw8DQkAAbxNAVxbRIvaz4FWAAMggLdRst9/o98OukhgAATwBmpElOhLwFGaQ9AACOBNCuAWtfUl4NoiXYcEgADeQOtPBG7Rz4H2OCQABPAWsp3OviotanMnSgAE8DYJfDr7qv+bAhgAAbyB5QHApfYHIlXXIQEggLcpgPs9sKJki1qcBQ2AAN7Gcg+s2u9KCQACeH3LIeiaUWq4DAkAAbyN/iyGKLVFaRkehwSAAN5Ebf0k6IzIiCJ/ARDAWygZyyOQarSoDkEDIIA30CJqixa1RakZpSqBARDA68vWb79RMqJEdRUSAAJ4mwSOiKebcJRwCBoAAbyBfivo0004WjgEDYAA3qQALhklIqP0W3FoEgAE8DZq6ydiLY8GBgABvEX4ltNzkDKK5xECIIA30A9A9xq4RoTnEQIggDeugR2CBkAAb6R9qIHbcjkwAAjgtWVP4doXgUMJDIAA3kRtUTPKaRlYCQzA+d5ogqvzt0SUaBklli8AUAGvrkREi+xrwOEsLAAE8FY1cMtlDdhZWAAI4I2cHoYUUSOXS4EBQACvLJcTn1uUFhnFIWgABPAWapSM2jJqLv8HAATw6vlbWj8MHaWfEu0gNAACeH2lZWS0fv5ziepCJAAE8BYyorY8PQipqIABEMAbaBG1ZD8RK1s0FTAA53MnrNcUwCX6AvDbzMioEhju3i+/2g2bY1SogKfR7wHdIkpGswYMw0+ZQQBPkr/9UcAZNWpLa8AACOBNlBY1okaUfj2wChhG5k45COB5ZJSoZXkKQ0kVMIzdYUEAzzOfblH6Uxh6BmsTAATwBvPpmv2wVjudhgWMPGUGATyLUvvzgDNa1FQBw9hTZhDAs+gPY4iS0ZanEgKAAF6/AG4RtdQWkVGb+3DA0ByCRgBP1J0zaunLv1EcgYaxOQSNAN7Au2+evlbcvuUJDL0AjqjNBBuAs814L+gff4x4+lp1Qt0ySrSspbRUAANw9Ap4Gy1atojIKDXchgOG77EggCeRkZHR+k0oaxT9G8busSCAZ1GXy38z2nJJMAAI4NXzt9SMUiNqS/eCBkAAb6REiYjS78QRrgOGsVkjQgDP1aNrvx1HhuuAYWzWiBDAM6VvvwqpLZcDOwQNgADeYj5d+vpvRtSSTQkMgADeQm1Rl+cQloi0xAQj00ERwPPkb8koUfuNOFpUS0wwMh0UATyNEhEtSo2I0wVJAHCmbe4F/e2E7fCf/pL1bUaUlrWUaFlaXv4qP9kFAY7pmqMy/+Z/3Oe9/us/rvfa31/551p+/I/L/fLePgi3HNK+ejJkc5CKwTgE/dQ7L/6qETVb1BY1I/pdoS99FWDgagME8AZqtrjsK0qLEhn9XKzW/+3SVwFAAB9biYx60VeLfKpja8mo0e+JddEXAAL44BVwiyhRL/jKFi2yH4UuPcLbhS/h5lmwGQecEMCjVsDZn6dw/tfyOOASyyHoGjXjopdw8yzYjgNOzLBPTnkWdMsLz2Sub7OWltHy9BikWi4/G9pZ0HDbIe3rs9pHrYMKeET9ls79lOZzviJKRs/fKMv5z6VFXvQS1TExABXw0SvgjyrZ8wL76bc/+mMXFcAtVcCwXQXsOmBUwIOqy0rumRcAZ5RTIfv0x2pktLjgJZwVAmNXGyCAN1AiWpRs51yNVHrwLpcAtyj9XOjSH0549ks0IwKAAKa2jP5QwdKi1K9/X7I3ImrU/sdqlOWpwBH17JfwAEMAAUwt2c+OyoiMKPWr36PU5ShyidIfCFxq9BTuR6TPe4l2/R2kgYuZ7yKAB1UiloPKp5Xdr3yvyyHnKMsCcA/V1g9Ml+V/Z7xEOgING9LfEMDDzo7rR7eVLMtZWV/4XjL6TbOiH4cuta8e9/yO/HB/6OdfovZ7VwIggA+dv7nUta0fSG5RvvC952Z7iuAWvfLNJcJP/2svvURklCjuBQ0ggI8u47R+2w8SZ0T9/HvLZdW3/1YvdZeCtmWUeqp/2wsv0Ytt94KGDWfZmgABPKbai9Ryesxgi/L596VAjvxw/+cWNWJJ4ij9cuCoGc+/RL9uKap7QcOWs2wQwAPqAVqXW2S06CdjffZ9OUerRfuw5ttzuB96znbK7/rcSyyPP5S/AAKY6CcnlxY1+iHmL3x/ugFHRjtlcUZp2ZZDz9lj9nSS9FdeImpEjeKYGIAAlr798HCL7Nfrlh6tn3yPp4uAWz/M3E/disge2ZER2Z6OU3/1JfqjCKtjYrAd810E8KBK9ps5Z/QbWS0HpT/9vpSwLfuR5+UW0OXTu0Pn0zORvvoS/cZZxdOQYDvmuwjgUSvgnru1Rc1oGTXiw0MDT9/7tbzLf812ugX0J3eHblGXi5rK11+irxoXIwKAAD58BVyXZdwo0U4nMfczop++R0TrN3wudTkGvawFf5S3/THBsZyU9flL9MuBS12enATAMb3RBKcEjmzZMurb7CVwiZb9ot/l0t+sbzOj9Lt2RJSopWV9my1Lfdt/r0TE8u9vl1/99CVallqivs3SD2TDvXz9wbnxOOUGm++iAh61by6rt7VkOz1csD9sMJf7Ti7Hl/sx6l4Lt+WE6A93h14q5OW64P6HP36JjKd7UeZyDTGwyYxDEyCAB+2b5XR97nI75xalRots0f+1LnmaUepy1VFk/2ltER9S+qMV3/6HP7zEcovKvoIcy82kARDAh7Y80Kjf7rmvA7eMmsti7+mWz6dn+dbl+UY1Tw9XKP0GHfWjFd/Tn68Z/SaWtZwyWgEMIIBZYjVKtozydKON5YDx0zVFHz1lsN/4uS3/teWHhwyWfj3T02MN+1eLD7/dD1NXBTBsyBowAnhQpVe0dUnO5W5YH67nLadznVvUJW1P67hLXPdj2LV9ePRRXwCuy207+m9HL4Nb1J7FwDasASOAx03gXB6YUEu/o3Mud7pabn5VS7Q4Ldwup1HVdlr0zegLwac0rtmTN09VdetFb21P68zVdcAAAvjw6kfX8cZyR+cWcbpHZc2+3Ls87ajfUqMuq7+9QM7Tk4Dbh3Od+1JxRiyPGj79ifYh0AEQwIcugJeoXc7ByrZUuD0x++MTejI/3Vijr+yebm3VD01ne7pYqd9oo/QnDPeEjtKfVbisFVcVMGzGfJfRbBMB3/7DZz/6138cqh2+j/Z5U/THBdayfKulvn36pdZvrxG11PL0R2up5emFWp6+9T9f32Z/lXh6qZa/vLcPcqe+P+eNOA53fxFUwC/46/gNUfuNM5brkNqyVlujX5tU+1lXpT/Wt0Vt2c98Xu4q2U+nqiVK1Oy3mGzZbwrdTreZXs7JKv16p9IvBAZABbym/zl6BXzF1OXdx2Vyv+nkj3YolIo2C0aqgOfUr1ZaHkLYXNULQ7MGjACeJ39Lns5rLp6rAMPXxpoAATyL03nNy3nTbqsBgADepgT+8CTgkm6rAcAlPA/4NSVwy9MDgMMK8HOnvzSPneDuHKJCBTxRd64ZpztX1uYQNIw9QdQECOB5unNZ7gX9dNdoABDAW5TApzs7L7eHBgABvHr+9rtAZ5R8emIhMO6MGQTwJJYF4IiIKC1CBQyD91gQwJOocXoYcIt8ymIAEMCr5m8P3376VXUEGgABvInTA45ieV5ws8QEA9NBEcDzyNODCzNaRElLTDByh9UECOB55tMZpZ8EHcszgAFAAG8yny7RLwHOSBEMgADeQj//ebkEuDZHuGBkZsgI4Hnyt5//XNrpnliuA4aBmSEjgKdRlgI4W/QYdh0SAAJ4kwl1L4Az6nJKNAAI4LW1iH43rKiltnAnDhi/x4IAnqMAbj16a+mPIlQBw9A9FgTwLGpGeToFOpoKGAABvEX+lmjL04BLRnMWNAACeAul336jZNQWLZ0FDUOzBowAnqg7l4ja+gXBGc6ChqFZA0YAT9SdW9SSPYfDWdAACOCNSuCMEpERLUptzoIGQABvlL+1Re2XApeMqgKGkXusJkAAz6LHbnm6JaX8hcF7LAjgSdTW/9dvSVmbCTYAAniD/C3ZT8KqLWpESRNsAATw+ko/7HyqfzUIDE0fZTRv5tqc337xpz//cZXunKVlfZsta4kSUd8qgWFc+icq4Im6c8soGb3+rf2BDAAggFfWMiJqi7Y8FxgABPAm+ds+ug1lSmAYusdqAgTwLLLffrLfiaM0CQyj91gQwJNYLj+qpfW7YenfAAjgDfK35HIpUi53wwIAAby60qJGL3+Xq4GBcZkiI4DnkVF6+bs8lEH/hqE7LAjgiebT9cNlSEpgAATwNvPpFiVKtoywBAyAAN5KXS4A7tchuQoJhqaHIoDnyd8SbTkPukWNKoFhZNaIEMDTKFEzatQS9XQ6FgAI4C0iOEqUqMUiMAACeCvt6V5YUZvrgGH8HgsCeA7Z74W1PIlQCQyj91gQwLPoh57744DdCgsAAbxd/taM2noBHFG1CQACeHWlRS3RC9+aUaNoExiXNSIE8DwySkSNWIJYAQxjd1gQwNPMp2uLWlp/GqEEBkAAb1UAZ5TIFhHZHIIGQABvo0b085/r07nQwKh0UATwPPlbWpRcLgPuzyQEhqWDIoCnUSI/XAbc0vwaAAG8iXZa+81oGc38GgABvEX+Lg8C7uvAkW7EAYPPmEEAzyFjufwo+wVJzoKGwXssCOBJ1BY9e/sFSQpgAATwFvlbcsnefk8OCQyAAN5AWc7BilMMOwQNA7MGjACeqARukVH6gxiiOgcLhmYNGAE8UQmcHz2IoTgEDYAA3qQAjhp1eSJSqdEcggZAAG9RAEeJ0qI/EalU1wHD0KwBI4BnKoFbZGSUyIgSVQUMA7MGjACeqASu/TLgqNGi9btyAIAAXrsALpFRskVpGdlMsAEQwFsUwK1fe9QfxRCpAIaR6aEI4HlkPwurtoyaVphg9A4LAnia+XR/DlK/CVZtzoIGQABvUwBntCWIa0nXAQMggLdQW/SjzyX7oWhNAuPSQRHA8+RvyX4BcOunYhVLTDAwHRQBPI3SokWLqBnFCjAAAni7CXVG9ltAlx7CACCA19aiRUQuJ2GFQ9AweI8FATxRAdzPwyp5WgkGxu2xIIBn0ave7AVwdRkSAAJ4k/wtUSNaXwDujwUGAAG8ttKi1JZRW0Trz2YAhmUNGAE8j+wnXpWMmi2KChgG77AwlDea4Or5dNa3GfVtRpTIiLMr4De/+9UP/qAxAVTAnD+fLhm1ZF8JvuBWHL978QcACGC+qraI0qKvBF/wMIb3mg62Zw0YATxP/paM2o8953Ia1nneaTvYnjVgBPA0SsTTQ5BaZFQVMABnu+wkrDfvvov45n3EdxHxyw+Hr4HfZkaJlrW0PDt/VcAAXBrAv/zy/kMR98vBm65l6WdCZ5TIKGeXwO8lMNyhx2oCBuMQ9NUyTmdCR78R9LklsPyFO/VYEMBzOF151M+CPv8+HO81HQAC+Pr8XR4CXKNkRI3iLGgABPD6SvTsXUK4ug4YRmYNGAE8UXeupUX0pyG1Cx7FoAKGO7AGjACeqDuXyH4dcI3sN8ZSAQMggNdW29MNoaO2KOdOsFXAAAjgVyi5PIOhLP+uAoZxWQNGAM9UAOey/rvUwipgGJc1YATwRAXwsu57uhvHuVTAR9tTHvLLX0XbwJE7iQB+VRFc8vQwhtI8DYkvF179QMmXvoAjd5I3PvprLc9fKBH1bV5yCNq9oGfycPqXx6MMlSUiotUd9lh76x0r3Izllr0I4JsMRFFa1rdZS+lpfO7DGOTvTEn0aRI/HmV7c4ebmzvam9o0SfXwySfwMNW2CeB7qiWjRJT6NiOjqIAPWfh+9uMph5csX9vcR/vCGntTzrAnfWWvyQcZvHEA/6/5Wu6b73/55pf2/979+d9HfPPnv4k//0389KMK+NDxuwwv040uD8/+N4PpKjHVQ/hxvs2atJOogLf10x8iIuJP8ZeIiL9E/6cK+ODxO9/okuXFzd1JSrQdNu9e5zfz7DUCeDbyd+r4nWF0+fBkryxnNckuNnfANeAzmneX+9LDzvaaZz6HKydAD+e9oMuQtvdeE+y4Hnw4s/+VOba2HGlzt8+pMmXjHquTvIoAVgFz6xHzkkFohvg9t1Lmul1kZ/vSoTqJAFYBM9qI2cehw0w2djKWtv227572pUN1EgGsAmar/L2wytv1EbaHi4fG4cfSsdaAH+bcly6diB38MLQAVgGzTv7u+LhsXlXPWtJb8YDBTvalA3USAawCZuShZceDS9msiexMMzXuoTqJAFYBM/LQcrizTMYeS9u+22kHQXVlJzlwAgtgFTBrDhISeJw3t/NWGj6orn2DBz4ZWgCrgFl17JPA3KiNBm/c13SSo+42AlgFzLojX9FU3GaHGPsAg09eAKuAMbTct7GGfWeDrAE/zLkn6iQCWAXMWCXLEQ17zD0naJ7USQQwKmCJgva6Q+M8+NAFMCrg40hNoBgaZ2cqOokARgV8mCFTnEzSZG2KlhmycXUSAawCRjmnHhr6XZVJG1cnEcAqYA6TJaOzIrhiszzoJAIYFbACGM12h5warXEdgBbAKmCUcsbk59x9DfhWbTJawSl/BbAKmIFrFi3nLd3w7y/aVQCjAp6eub2mG/CgwFjHF3zSAlgFjLm9tjvKjCR90AIYFbAxk9003n3XgHPSxnUGlgBWAWNur/WGfkNl0saVvwJYBYyxRfMdaTpSJt0uAYwKGGOL9hs6MHPS7RLAqIAxtszXgPdcA85JG9ckSwCrgDG2aMGh306ZtHFNUgWwChhjiyY82lSkTLpdAhgVMMYWbTh0WOak2yWAUQFjbJmtEe+3Bpz2UASwChjF23Fb8X5vpkzauDqJAFYBo7zQjKYhPl0BjArYmAmb5FTRSQQwKmBjJjsYo9tsbZA6iQBGBQw7GKRzuiYoh2xPAYwKWOGGljx0CyiABbAKGGOLppTtCGBUwAY2RnWnNeCy09fWSQSwChhMZvb8ThyBRgCrgDG2aMzZNv+O6a4AvoU3mkAFHJErD5L5cItXadXYAp/Ee9UGKmBUwDD4dKYdeut3VdmrgDlSBczrxpZWI+Jh8lZ5XP558XaOUqXlLvalqG9z8G267i++ev8RwHfw7V8v/vq7/x3/4Y9ffK2rXu7bv65VAUvgmUq2x0//Zcrh5ZOD/48G0XWbuUacvyq0j2PQH+9Aj+sveQngV/pt/Obni7/+7X+PP355QL3q5X7zc/yzCpgz4/ejH8yWTl9Ye3+8ZCOPvKSe1+5K7XHs/ai8ppOMvnEq4Pj58q8/3vC1fo74ea0FchXw4M4fW758Wthco8tXTn27ZCMHqdLayPvStbOcO81urp5YPP1UFTx0AI/gl3VeVv7OUrQ8fvU/zDO6PMY0GzlyJT7vVO5rO1B7VAQ7C/oejfNey85RGj5e999m2cbzLws77jHoc7f8sV48/7m4xr5LZf/cDvQYCGAVMFeNLS/EzxSjy2O9Pp65xWGGne9Hz3eSRxcxC2AVMCtk0wwJfEa+nrmRYxyrvsMa8Hkb/viaJr7L4YW8TSdph09gAawC5oqx5Yzk2fv8/qz3/zjdJzvcvvTSxzDuSvzLO8fhj6E4CevWs5P/cvkf+ZcX/8xPP/g0hipazho3Wt3xqVjnFidnnUrj3p6v2JdG3I1u10kOfiqWCnj7ClhJvHvtpr+22/J3dzXwiDnVXvsbue9Ocuz955MK+D+/vyi7v3/xV340O2HG/D03nfY6vb9obe6cAm2IK4HbXpt6uBI4dRIZM08FzM7GlvPT5AjT+zbTRzvkvvRClo250KGTCGCNw50T5wiDyxnbaBH4VfvHaHOcctsd/8AJLGNUwFw2tlx27cQRBheXc169L92ihUec3Vw2ZThuAgtgjcOqcXOAweWM0bbs422aupwjdRIZowLmLmPLxcP4AerDx0k+263/vrPbbW/n07dAAGscFC1jNIpF4NfF1LMNvPXhhRf/Pne4kjEqYFYZW7SRVrnRvlRnbWD5K4A1DsaWcZplgEXg0UKs3aqBNz68kHtraBmjAmYXjC0Tl8Cj5dS0czmTVAGscTC2DNQwFoFfN2cx85MxKmAMmmiZe8zlnvv1bY/vF7uCANY43GFsUQCbI9xoX5o3pnQSGaMCRpk31LB7/7Owclfttdt9TycRwBqH/Q/RJif2pfMSO0faMAWwjFEBM0LVAuYrCGCNg0HzrrOT9PG9bi7XdBIZowJmYkUBPPHImwPtS23THVcnEcAaBwBkjAqY6Uq8O6vjVGl7b6v91pY6iQDWOFwlJxgAjb1jvL/c9K2kTiJjVMDAXudXIIA1DgqonVL9fFCO2VI6yTgZ8+47FTDzDJooQO8aU82uO503t3257+OnH57+z49mJ6jv5Iq3p7RnnQB+90388FPMk7kqYFCCr/x3iSm+EMD/58WS8N3H8fR+usRVARug1U+vOUjwbHlU5M7sdBIZowIGjhVTm1X3VvIFsMbhDtWdJth5AdTsgt7hYN5oghtXwH948Tf+9t2vfvDRiWvABMVbEVMo8oZsnHdaFgEICOBbV8Ds1rNVi9NLzqG2O0PTSRDAd2uc91oWBN92wYgAVgGfvNOyyLjtjfLEgnkPEzgAIoBVwBhbML1hBwY9C/r79999c83Xl2vW3/y7q17su5//rwoYbsadOOATlx2V+fxOWIP57Rd/+vMfh3qT016GlF9dh2q7GHkfnvuPj9M1y9ff1yveWD63FrnJ9g7R3PnCkuyVb+Xhzm273uf7MOpOc/uP6pMXdB3w9lTAO+To39GqjXXfyoOPg7AGfA/vNYHxmak5JxkBrAKGbTlScODpoyV+AawCxtiCyQECGBUwDFKlWWNAAKMCBkAAq4Dhhhyrn9qzVyFpHgGsAmYFxhYf4gUc7EYAq4ABsYgARgUMgABWAbOVY92UwcF6uxkCWAUMmBsggFEBw52rNGvA63ICvABWAWNsAQQwKmDlGXYlEMAqYDgwa8Bs5dzlDgGsAkYeGRThDp1LAKuAMUm/IcvlcC4BrAIGQACrgIF1WANGAKMChjuwBowARgUMzDa9cIDhik9DAKuAOSYDJty5cwlgFTDHzKr0KcJ9CWAVMByCNWBG29cEsAoYABWwChg24ogsCGAVMGDGgQBGBQxTsgbMaHMzAawCBkAAq4ABEMCogJmX64BBAKuAQR6ZcSCAUQFj6AYdXACrgAFYlbOgVcDAlKPsNopPeH8EsAoYDsFCAgIYFTBgfoMAVgEDcA9vNMH2FbAEhu0NsQbcqg8CFbAKGLZ23/BxjBQBzHtNwLycjAsCWAUMsAeHPTghgFXAcAhDrAE7Ds5HNjoJ6+8//9Fff7/zOdsXDrU9qoBBmQUqYBUwAAIYFfCOObMIEMAqYBjYwMd5PQ/YLFUAowKGqecGddqYchsRAawCBkAAowKehMk9IIBVwDChdui/HgSwCpgruIT0XMWHaFdCAKuAAUwtBDAqYAAEsAqYC7nGcf/ahH8TAhgVMETE2IchB3lv5nIIYBUwyhYwtRDAKmAAs1QBjAqYX3OG5w3c+VYnwoPReoEAVgHDzYx8FHLDSVQ95FzOLPXiLnJZAItrFTAAN/Hmot/+6UctpgKeVn2ufCtuFQ28fphR06qA2Uza2EGMsgY878nCToO+lABWAYPZwZxZv3L9hgBWAaOQ3UUJ5CxkuxICWAWMgABTi7tvkwBWAfP64g4TLLsSF3ujCTb3pz9pA1RAU7+7OmvIPj+Lca2AChiOFy57YHDmKM6dfwlgkBAbDzvmcrYMAQzS5TCcZGdWLICBI9Y/bey3t2XY73kuVzfesrnnvQIYxhu/sSuhAoYDcYxSsYKphQAG+TLZ4Hv3UmbT+VWddVdqR+skq26RAAaze58fGlkFDPfkOiRHCMQU232+AhgkzAaazZ1jV6ozbtm9pt4CGNQth2gd59jZDUYjgOHsIVoJvOfGSe9FJxnsoxLAYHa/QdscbX19yiO1OsmNJ6MCGDhCASymGI4AhvPLNClzbaAMsADbJv7bdJJ9Ti0FMKhbfHhTDevaedwWaAIYri1blMBXNszxLrGus8bU0TrJmp+UAAaze+2iBLYz3IEAhksKNSXwF4fcPTTLYKuyE8fU0TvJ+dsvgMGwufqI04730c17pLbevKXv3hTtTu9OAMNFQfGgkcxKRmq1EXO8+GAFMBhcBmmSIz7mYpPljHzYfvbz8iw1p+okud5eIYDhsqS4sDseIK93UgC3Cdtt1KTL+fr9Kl1eAIMSeO0GGSL7tg6Ftv6edKf8rQfrJOttjACGC6MiJfAnrIrfKz8H3hOn6iR5u99uAhj2VUrtvzXqIVvmjOWMV8XUw71Crs3XSW54jOaST0UAw8VZ8bDdXzV9FbfLMXaIudzgRx5mOjCy2j4ugGGgDjln/o4RfZvXZOds9tUxlfcMuLOmjgddmshLWk4Aw+VhYRn4ooaoB22dFY+mPOxgD3yY5rO6ZO520QcjgOGKtJg7gc8eb0xEXu+aJsw7Z9uZhzQeDvgh5UUNJ4BhvdJvrx4ebtkIgyy+tjH/xivC9NPy9x574pnHNHaUwO02U9ILPw0BDFeN02eGz17PmD4ngh/2NQkZ9qN4uP1HM8ymlUk6SVlnJxPAcOV4fs44uONC+eGlwfPsHKiH3UdWKBTHiN92y16yh05ybrCWy3aIN8ZR+FUnOXc8eIjHm5Y2400xWr3BtrXj7krnbvpzDT3mHnV2J3lx2x72sUUPj2vU8gIYrg+M5yJ4hjNQ8isbuMvCvg3d0GeM7zs9nPLcPG5HnaScM0cqF+6CAhhe4yEiPg+ph7k28PFVWzbKEeh7rDTerlAcbJ+6aDaTD/H51o02nWg32H0u/owEMFw/as6Xt7ffvnbkXemCjc9nDqc87L6T5P77yMsHKV7M6CqAQWQwZE49RMSnteK4R53b8T6qlw5CX/FhCWBg1XHt0JFx+V+ani41qHw+gV/O3893BpchwbiZMYFxKiUPsdJJXrenPhuxVx2sEMAwcGggp3SSYT6qZ45OnHPLkSqAQQmsKeWUT/YqX8nZs9YNmgoYlMAHbck7vRWTuan21fxSBF99U1YnYQGHiJ87rQFPO5k76iz1sxuLPFzfF1TAoGwxSNuXbNjZG5Qf7pOeD2ffnLupgEFwGKPRSV65QTe6WEwFDJLjEEN00wg6yR03qApgUAIfdYROraCTDNZYAhiUwAZozTBmJ2nTfFJVAINR0yRGO+gkg3xSAhikxyGG56YhdJK7fVJffuXJzoL+Z4MeRk2j8xfd8V7QtegkO9lny6adQQUMSmCDs6bQSe6wBwhgECDGZm2hk6y5PVUAg1HzwENz0xg6yZ2252ufvwAGJfAhRubUGjrJnbanCmAwahqY79Uc0+5Ljzr99Z1BAMMBR02TFxMSn/RmH1QVwGDU3G7gfPRhHmVG0vSLq1tIAMOdcmTmdB9x21KTmFqc80HV7RpIAMMh65adjWEmcz7tvU6Vnnk9AQyixLRFqyjuV/qgnhtCBDAcanA5bps1zaK4v8Os+7kXE8BwqMFld+PXzaRdSXG//VTp2dcSwHCsweWo+WtXUtzf4YN6vjcIYBAoUkZOKe5X6fPPv5AABgl8iKG4aRxbtvXO8kKzCGA4cOFypIE4R3gT1Qd/pM15aeQQwHDkwkVLbTyXmzeBqz354k9bAMNBc6Xt5DW1+j4ifba5Rd2gRQQwHDWBb79NQ4/BbcpWH6jJJ0vgV2/OGS8ggOE+afV4/+Hq1m9h7BE4Z9yThmry27+Zu3aSV27OOX9cAMM9xoI2REl923fx6GzxrRN4sCnPjffqe3eSV/39Z300AhjuMNgNk1U3fCPOv9q8pcY75HDLycUIx4hW/mgEMGw+3D0OlFU3G+aGz9+BThC7UVuNeMjhZrvBGBv3uO67F8BwQViN8yqDbVUbv/7Ngd7LTdJlzCa/TXAOM0e9bnPOffcCGDYd89qAZcvrRzvLv5fuBvX1O9K809SRtu2KT+r8t/9GT4BLkibLfEVLxGM8zLhZIyfw40PM2uRzdZKLP6kL3r8Ahs0GzqEHzesjeCfXf452k5DXxNTgTT5ZJ7mob1z00Qhg2GbgHD6mro3gvZS/Odobuj6mxm/yK3emUTvJ2X3+wg0QwHD5wHl5BO+iSrxm1HT0efO53D6OOFyxMz2O3OfP2ZyLPxkBDKtH8H7u0fcYl0WC+N28CN7TzvQw03a92Deu6Az3C+D3Oh+7HjnPHl0eZ92wnd37d8wHRVw45dlXm5+9L+1js9pjfG2DrtyAa5ZFvv2v37z/7rKvL73ML5e+ys+/X69lH+71ic509cbXB5J5n8H20uC52y1/acMed/jGH/fa2Ls+4PDixu20j+TbbFnfvu6hSVcF8N/daYv/SQAL4HG3Psr+B8u5p0SP+3zbc/Sih1kmFDdlDRhuM5cymvCK3eeFQ9G7n8PqHXsP4L/6uIDrp0h7zeDmPmMC+O6+9XEB18rx32J7jF8fjVY5CmAVMOeOHoB+xFn29DAGFTAAAlgFDOyqstQECGAVMLC91AQIYBUwAKiAAUAAq4CBdVgDRgCrgIE7sAaMAFYBA4AKGAAEsAoYWIk1YASwChi4A2vACGAVMACogAFAAKuAgZVYA0YAq4CBO7AGjABWAQOAChgABLAKGFiJNWAEsAoYuANrwAhgFTAAqIABQACrgIGVWANGAKuAgTuwBowAVgEDgAoYAASwChhYiTVgBLAKGLgDa8AIYBUwAMQbFXBERDxePp0ut3gVAFTAKmBgXtaAGc1GyyJ//4U4/f3OW04FDPvomPonKmAAQAADgAAGWJU1YAQwwB24DhgBDAAIYAAQwAArsQaMAAa4A2vAjObN/Fv0k08ZAAG8ut99FsA/+JgBh6ARwADrxawbTrIb1oABQAADgAAGAAQwAAhgAEAAA4AABgAEMAAIYABAAAOAAAYAAQwACGAAEMAAgAAGAAEMAAhgABDAAIAABgABDAACGAAQwAAggAEAAQwAAhgAEMAAIIABAAEMAAIYAAQwACCAAUAAAwACGAAEMAAggAFAAAMAAhgABDAACGAAQAADgAAGAAQwAAhgAEAAA4AABgAEMAAIYAAQwACAAAYAAQwACGAAEMAAgAAGAAEMAAhgABDAACCAAQABDAACGAAQwAAggAEAAQwAAhgAEMAAIIABQAADAAIYAAQwACCAAUAAAwACGAAEMAAggAFgIG+me7/v3/3qB//y4p/5jz/YEQAQwM/53eV/5N27l37jJ/sBABtzCBoABDAACGAAQAADgAAGAAQwAAhgAEAAA4AABgAEMAAIYAAQwACAAAYAAQwACGAAEMAAgAAGAAEMAAhgABDAACCAt/Be4wNwXG+2+Wv+ab6Wa4/2HgB2WAEDgAAGAAQwAAhgAEAAA4AABgAEMADsRE63RX/77lc/+NN7HzMAKuC1vXvxBwAggAFAAAMAAhgABDAAIIABQAADAAIYAAQwACCAAUAAA4AABgAEMAAIYABAAAOAAAYABDAACGAAQAADgAAGAAEMAAhgABDAAIAABgABDAAIYAAQwACAAAYAAQwAAhgAEMAAIIABAAEMAAIYABDAACCAAQABDAACGAAEMAAggAFAAAMAAhgABDAAIIABQAADAAIYAAQwACCAAUAAA4AABgAEMAAIYABAAAOAAAYABDAACGAAQAADgAAGAAEMAAhgABDAAIAABgABDAAIYAAQwACAAAYAAQwAAhgAEMAAIIABAAEMAAIYABDAACCAAQABDACs6o0mAAAAAAAAAAAAAAAAAAAAAAAAAAAAAAAAAAAAAAAAAAAAAAAAAAAAAAAAAAAAAAAAAAAAAAAAAAAAAAAAAAAAAAAAAAAAAAAAAAAAAAAAAAAAAAAAAAAAAAAAAAAAAAAAAAAAAAAAAAAAAAAAAAAAAAAAAAAAAAAAAAAAAAAAAAAAAAAAAAAAAAAAAAAAAAAAAAAAAAAAAAAAAAAAAAAAAAAAAAAAAAAAAAAAAAAAAAAAAAAAAAAAAAAAAAAAAAAAAAAAAAAAAAAAAAAAAAAAAAAAAAAAAAAAAAAAAAAAAAAAAAAAAAAAAAAAAAAAAAAAAAAAAAAAAAAAAAAAAAAAAAAAAAAAAAAAAAAAAAAAAAAAAAAAAAAAAAAAAAAAAAAAAAAAAAAAAAAAAAAAAAAAAAAAAAAAAAAAAAAAAAAAAAAAAAAAAAAAAAAAAAAAAAAAAAAAAAAAAAAAAAAAAAAAAAAAAAAAAAAAAAAAAAAAAAAAAAAAAAAAAAAAAAAAAAAAAAAAAAAAgP/fHhyQAAAAAAj6/7ofoQIAAAAAAAAAAAAAAAAAAAAAAAAAAAAAAAAAAAAAAAAAAAAAAAAAAAAAAAAAAAAAAAAAAAAAAAAAAAAAAAAAAAAAAAAAAAAAAAAAAAAAAAAAAAAAAAAAAAAAAAAAAAAAAAAAAAAAAAAAAAAAAAAAAAAAAAAAAAAAAAAAAAAAAAAAAAAAAAAAAAAAAAAAAAAAAAAAAAAAAAAAAAAAAAAAAAAAAAAAAAAAAAAAAAAAAAAAAAAAAAAAAAAAAAAAAAAAAAAAAAAAAAAAAAAAAAAAAAAAAAAAAAAAAAAAAAAAAAAAAAAAAAAAAAAAAAAAAAAAAAAAAAAAAAAAAAAAAAAAAAAAAAAAAAAAAAAAAAAAAAAAAAAAAAAAAAAAAAAAAAAAAAAAAAAAAAAAAAAAAAAAAAAAAAAAAAAAAAAAAAAAAAAAAAAAAAAAAAAAAAAAAAAAAAAAAAAAAAAAAAAAAAAAAAAAAAAAAAAAAAAAAAAAAAAAAAAAAAAAAAAAAAAAAAAAAAAAAAAAAAAAAAAAAAAAAAAAAAAAAAAAAAAAAAAAAAAAAAAAAAAAAAAAAAAAAAAAAAAAAAAAAAAAAAAAAAAAAAAAAAAAAAAAAAAAAAAAAAAAAAAAAAAAAAAAAAAAAAAAAAAAAAAAAAAAAAAAAAAAAAAAAAAAAAAAAAAAAAAAAAAAAAAAAAAAAAAAAAAAAAAAAAAAAAAAAAAAAAAAAAAAAAAAAAAAAAAAAAAAAAAAAAAAAAAAAAAAAAAAAAAAAAAAAAAAAAAAAAAAAAAAAAAAAAAAAAAAAAAAAAAAAAAAAAAAAAAAAAAAAAAAAAAAAAAAAAAAAAAAAAAAAAAAAAAAAAAAAAAAAAAAAAAAAAAAAAAAAAAAAAAAAAAAAAAAAAAAAAAAAAAAAAAAAAAAAAAAAAAAAAAAAAAAAAAAAAAAAAAAAAAAAAAAAAAAAAAAAAAAAAAAAAAAAAAAAAAAAAAAAAAAAAAAAAAAAAAAAAAAAAAAAAAAAAAAAAAAAAAAAAAAAAAAAAAAAAAAAAAAAAAAAAAAAAAAAAAAAAAAAAAAAAAAAAAAAAAAAAAAAAAAAAAAAAAAAAAAAAAAAAAAAAAAAAAAAAAAAAAAAAAAAAAAAAAAAAAAAAAAAAAAAAAAAAAAAAAAAAAAAAAAABcBcjZ07nyVlLoAAAAASUVORK5CYII=;" vertex="1" parent="1">
          <mxGeometry x="950" y="230" width="124.44" height="70" as="geometry" />
        </mxCell>
        <mxCell id="nWg8PshFdt07fVIY3bvL-27" style="edgeStyle=orthogonalEdgeStyle;rounded=0;orthogonalLoop=1;jettySize=auto;html=1;entryX=0;entryY=0.5;entryDx=0;entryDy=0;" edge="1" parent="1" source="nWg8PshFdt07fVIY3bvL-13" target="nWg8PshFdt07fVIY3bvL-14">
          <mxGeometry relative="1" as="geometry" />
        </mxCell>
        <mxCell id="nWg8PshFdt07fVIY3bvL-13" value="" style="swimlane;startSize=0;" vertex="1" parent="1">
          <mxGeometry x="30" y="182" width="180" height="278" as="geometry" />
        </mxCell>
        <mxCell id="nWg8PshFdt07fVIY3bvL-28" style="edgeStyle=orthogonalEdgeStyle;rounded=0;orthogonalLoop=1;jettySize=auto;html=1;entryX=0.5;entryY=0;entryDx=0;entryDy=0;" edge="1" parent="1" source="nWg8PshFdt07fVIY3bvL-14" target="nWg8PshFdt07fVIY3bvL-17">
          <mxGeometry relative="1" as="geometry" />
        </mxCell>
        <mxCell id="nWg8PshFdt07fVIY3bvL-14" value="" style="swimlane;startSize=0;" vertex="1" parent="1">
          <mxGeometry x="283" y="182" width="110" height="111" as="geometry" />
        </mxCell>
        <mxCell id="nWg8PshFdt07fVIY3bvL-1" value="" style="image;aspect=fixed;html=1;points=[];align=center;fontSize=12;image=img/lib/azure2/databases/Data_Factory.svg;" vertex="1" parent="nWg8PshFdt07fVIY3bvL-14">
          <mxGeometry x="30" y="20" width="52" height="52" as="geometry" />
        </mxCell>
        <mxCell id="nWg8PshFdt07fVIY3bvL-6" value="Data Factory" style="text;html=1;align=center;verticalAlign=middle;whiteSpace=wrap;rounded=0;" vertex="1" parent="nWg8PshFdt07fVIY3bvL-14">
          <mxGeometry x="15" y="78" width="80" height="30" as="geometry" />
        </mxCell>
        <mxCell id="nWg8PshFdt07fVIY3bvL-17" value="" style="swimlane;startSize=0;" vertex="1" parent="1">
          <mxGeometry x="283" y="350" width="110" height="111" as="geometry" />
        </mxCell>
        <mxCell id="nWg8PshFdt07fVIY3bvL-7" value="Data Lake Gen 2" style="text;html=1;align=center;verticalAlign=middle;whiteSpace=wrap;rounded=0;" vertex="1" parent="nWg8PshFdt07fVIY3bvL-17">
          <mxGeometry x="4" y="77" width="102" height="30" as="geometry" />
        </mxCell>
        <mxCell id="nWg8PshFdt07fVIY3bvL-2" value="" style="image;sketch=0;aspect=fixed;html=1;points=[];align=center;fontSize=12;image=img/lib/mscae/Data_Lake.svg;" vertex="1" parent="nWg8PshFdt07fVIY3bvL-17">
          <mxGeometry x="36" y="20" width="38" height="50" as="geometry" />
        </mxCell>
        <mxCell id="nWg8PshFdt07fVIY3bvL-30" style="edgeStyle=orthogonalEdgeStyle;rounded=0;orthogonalLoop=1;jettySize=auto;html=1;entryX=0.5;entryY=0;entryDx=0;entryDy=0;" edge="1" parent="1" source="nWg8PshFdt07fVIY3bvL-22" target="nWg8PshFdt07fVIY3bvL-23">
          <mxGeometry relative="1" as="geometry" />
        </mxCell>
        <mxCell id="nWg8PshFdt07fVIY3bvL-22" value="" style="swimlane;startSize=0;" vertex="1" parent="1">
          <mxGeometry x="460" y="182" width="140" height="278" as="geometry" />
        </mxCell>
        <mxCell id="nWg8PshFdt07fVIY3bvL-11" value="Azure Databricks" style="text;html=1;align=center;verticalAlign=middle;whiteSpace=wrap;rounded=0;" vertex="1" parent="nWg8PshFdt07fVIY3bvL-22">
          <mxGeometry x="19" y="158" width="102" height="30" as="geometry" />
        </mxCell>
        <mxCell id="nWg8PshFdt07fVIY3bvL-3" value="" style="image;aspect=fixed;html=1;points=[];align=center;fontSize=12;image=img/lib/azure2/analytics/Azure_Databricks.svg;" vertex="1" parent="nWg8PshFdt07fVIY3bvL-22">
          <mxGeometry x="44" y="91.69" width="52" height="56.31" as="geometry" />
        </mxCell>
        <mxCell id="nWg8PshFdt07fVIY3bvL-31" style="edgeStyle=orthogonalEdgeStyle;rounded=0;orthogonalLoop=1;jettySize=auto;html=1;entryX=0;entryY=0.5;entryDx=0;entryDy=0;" edge="1" parent="1" source="nWg8PshFdt07fVIY3bvL-23" target="nWg8PshFdt07fVIY3bvL-24">
          <mxGeometry relative="1" as="geometry" />
        </mxCell>
        <mxCell id="nWg8PshFdt07fVIY3bvL-23" value="" style="swimlane;startSize=0;" vertex="1" parent="1">
          <mxGeometry x="630" y="350" width="120" height="110" as="geometry" />
        </mxCell>
        <mxCell id="nWg8PshFdt07fVIY3bvL-5" value="" style="image;sketch=0;aspect=fixed;html=1;points=[];align=center;fontSize=12;image=img/lib/mscae/Data_Lake.svg;" vertex="1" parent="nWg8PshFdt07fVIY3bvL-23">
          <mxGeometry x="40" y="10" width="40" height="52.63" as="geometry" />
        </mxCell>
        <mxCell id="nWg8PshFdt07fVIY3bvL-8" value="Data Lake Gen 2" style="text;html=1;align=center;verticalAlign=middle;whiteSpace=wrap;rounded=0;" vertex="1" parent="nWg8PshFdt07fVIY3bvL-23">
          <mxGeometry x="11" y="70" width="102" height="30" as="geometry" />
        </mxCell>
        <mxCell id="nWg8PshFdt07fVIY3bvL-32" style="edgeStyle=orthogonalEdgeStyle;rounded=0;orthogonalLoop=1;jettySize=auto;html=1;entryX=0;entryY=0.5;entryDx=0;entryDy=0;" edge="1" parent="1" source="nWg8PshFdt07fVIY3bvL-24" target="nWg8PshFdt07fVIY3bvL-12">
          <mxGeometry relative="1" as="geometry" />
        </mxCell>
        <mxCell id="nWg8PshFdt07fVIY3bvL-24" value="" style="swimlane;startSize=0;" vertex="1" parent="1">
          <mxGeometry x="790" y="210" width="120" height="110" as="geometry" />
        </mxCell>
        <mxCell id="nWg8PshFdt07fVIY3bvL-4" value="" style="image;aspect=fixed;html=1;points=[];align=center;fontSize=12;image=img/lib/azure2/analytics/Azure_Synapse_Analytics.svg;" vertex="1" parent="nWg8PshFdt07fVIY3bvL-24">
          <mxGeometry x="39" y="20" width="40" height="46" as="geometry" />
        </mxCell>
        <mxCell id="nWg8PshFdt07fVIY3bvL-9" value="Synapse Analytics" style="text;html=1;align=center;verticalAlign=middle;whiteSpace=wrap;rounded=0;" vertex="1" parent="nWg8PshFdt07fVIY3bvL-24">
          <mxGeometry x="9" y="68.69" width="102" height="30" as="geometry" />
        </mxCell>
        <mxCell id="nWg8PshFdt07fVIY3bvL-25" value="&lt;span style=&quot;font-size: 14px;&quot;&gt;&lt;b&gt;Transformations&lt;/b&gt;&lt;/span&gt;" style="text;html=1;align=center;verticalAlign=middle;whiteSpace=wrap;rounded=0;" vertex="1" parent="1">
          <mxGeometry x="468" y="152" width="100" height="30" as="geometry" />
        </mxCell>
        <mxCell id="nWg8PshFdt07fVIY3bvL-29" style="edgeStyle=orthogonalEdgeStyle;rounded=0;orthogonalLoop=1;jettySize=auto;html=1;entryX=0.011;entryY=0.453;entryDx=0;entryDy=0;entryPerimeter=0;" edge="1" parent="1" source="nWg8PshFdt07fVIY3bvL-17" target="nWg8PshFdt07fVIY3bvL-22">
          <mxGeometry relative="1" as="geometry" />
        </mxCell>
      </root>
    </mxGraphModel>
  </diagram>
</mxfile>
